<?xml version="1.0" encoding="UTF-8" standalone="no"?>
<!-- Created with Inkscape (http://www.inkscape.org/) -->

<svg
   width="210mm"
   height="297mm"
   viewBox="0 0 210 297"
   version="1.1"
   id="svg1"
   xml:space="preserve"
   inkscape:version="1.3.2 (091e20e, 2023-11-25, custom)"
   sodipodi:docname="krakow2.svg"
   xmlns:inkscape="http://www.inkscape.org/namespaces/inkscape"
   xmlns:sodipodi="http://sodipodi.sourceforge.net/DTD/sodipodi-0.dtd"
   xmlns="http://www.w3.org/2000/svg"
   xmlns:svg="http://www.w3.org/2000/svg"><sodipodi:namedview
     id="namedview1"
     pagecolor="#505050"
     bordercolor="#eeeeee"
     borderopacity="1"
     inkscape:showpageshadow="0"
     inkscape:pageopacity="0"
     inkscape:pagecheckerboard="0"
     inkscape:deskcolor="#505050"
     inkscape:document-units="mm"
     inkscape:zoom="0.51717104"
     inkscape:cx="816.94443"
     inkscape:cy="631.31919"
     inkscape:window-width="1920"
     inkscape:window-height="1017"
     inkscape:window-x="-8"
     inkscape:window-y="-8"
     inkscape:window-maximized="1"
     inkscape:current-layer="layer1" /><defs
     id="defs1" /><g
     inkscape:label="Warstwa 1"
     inkscape:groupmode="layer"
     id="layer1"><g
       id="g1"
       style="stroke:#000000;stroke-width:0.93001239;stroke-dasharray:none;stroke-opacity:1"
       transform="matrix(0.86988089,0,0,0.86988089,3.021722,19.266501)"><path
         style="fill:none;stroke:#000000;stroke-width:0.93001239;stroke-linecap:butt;stroke-linejoin:miter;stroke-dasharray:none;stroke-opacity:1"
         d="m 146.77701,246.61128 0.15826,-9.29255 c 0,0 1.01744,-2.73577 1.80877,-2.60011 0.79134,0.13566 1.92182,2.93925 1.92182,2.93925 l -0.13566,9.36039 z"
         id="path85-7" /><path
         style="fill:none;stroke:#000000;stroke-width:0.93001239;stroke-linecap:butt;stroke-linejoin:miter;stroke-dasharray:none;stroke-opacity:1"
         d="m 146.76113,259.75892 0.15955,-7.20027 c 0,0 1.02576,-2.11979 1.82355,-2.01468 0.79781,0.10512 1.93753,2.27746 1.93753,2.27746 l -0.13677,7.25283 z"
         id="path85-5" /><path
         style="fill:none;stroke:#000000;stroke-width:0.93001239;stroke-linecap:butt;stroke-linejoin:miter;stroke-dasharray:none;stroke-opacity:1"
         d="m 185.40618,204.7638 0.15826,-9.29255 c 0,0 1.01744,-2.73577 1.80877,-2.60011 0.79134,0.13566 1.92182,2.93925 1.92182,2.93925 l -0.13566,9.36039 z"
         id="path85-88" /><path
         style="fill:none;stroke:#000000;stroke-width:0.93001239;stroke-linecap:butt;stroke-linejoin:miter;stroke-dasharray:none;stroke-opacity:1"
         d="m 185.20751,219.24264 0.15916,-7.80736 c 0,0 1.02323,-2.29853 1.81905,-2.18455 0.79584,0.11398 1.93275,2.46948 1.93275,2.46948 l -0.13644,7.86436 z"
         id="path85-0" /><path
         style="fill:none;stroke:#000000;stroke-width:0.93001239;stroke-linecap:butt;stroke-linejoin:miter;stroke-dasharray:none;stroke-opacity:1"
         d="m 185.41964,188.61368 0.15826,-9.29255 c 0,0 1.01744,-2.73577 1.80877,-2.60011 0.79134,0.13566 1.92182,2.93925 1.92182,2.93925 l -0.13566,9.36039 z"
         id="path85-9" /><path
         style="fill:none;stroke:#000000;stroke-width:0.93001239;stroke-linecap:butt;stroke-linejoin:miter;stroke-dasharray:none;stroke-opacity:1"
         d="m 40.79989,266.15853 0.127897,-30.18425 -1.790589,0.1279 24.812471,-15.73162 5.115973,-0.2558 10.231948,-12.15044 v -11.51094 l 3.70908,-4.98807"
         id="path1" /><path
         style="fill:none;stroke:#000000;stroke-width:0.93001239;stroke-linecap:butt;stroke-linejoin:miter;stroke-dasharray:none;stroke-opacity:1"
         d="m 96.136112,266.43179 v -37.71285 l 16.369368,-9.67692 0.0904,-9.94823 -0.72351,-0.54263 8.2299,-7.59684 1.1757,-0.18087 -0.0904,-11.93789 -0.99482,-0.63307 0.0904,-0.45219 h 0.99482 l -0.36175,-14.83191 -0.27132,-0.63307 0.63307,-0.81395 -0.27131,-14.65103 -0.56524,-0.52002 0.81394,-0.65568 -0.0452,-13.65621 -0.45219,-0.18088 0.97221,-0.65568 -0.11304,-8.52383 -0.24871,-0.22609 4.52193,-3.09752 0.0678,-3.93407 -0.45219,-0.47481 0.49741,-0.42958 0.2261,-19.69298 -1.13048,-1.26614 0.0452,-0.31653 -0.56524,-0.7009 4.25061,-2.600109 4.52192,-2.441839 8.95341,-0.497412 8.04903,1.537455 3.57232,2.351395 2.17052,3.30101 -0.63307,0.9496 -1.1757,0.76873 -0.0452,19.71559 0.76873,0.72351 -0.63307,0.49741 -0.0904,0.90439 4.88368,2.93925 -0.13566,8.90819 0.54263,0.67829 -0.22609,14.19884 0.81394,0.67829 -0.36175,0.58785 -0.13566,14.83191 0.72351,0.63307 -0.49741,0.49741 -0.18088,14.96757 0.76873,0.63307 -0.31654,0.67829 -0.13565,15.19367 0.49741,0.7235 -0.27132,0.2261 -0.0452,13.88231 0.81395,0.90438 0.63307,16.59547"
         id="path2" /><path
         style="fill:none;stroke:#000000;stroke-width:0.93001239;stroke-linecap:butt;stroke-linejoin:miter;stroke-dasharray:none;stroke-opacity:1"
         d="m 136.2128,267.18172 -0.2558,-49.1773 0.19185,-1.15109 0.1279,-14.26078 -0.19185,-0.33574 0.20783,-0.54357 -0.0959,-16.05137 -0.22383,-0.30376 0.33574,-0.57554 -0.048,-15.68366 -0.27179,-0.30376 0.28778,-0.44765 0.016,-15.81155 -0.20784,-0.36771 0.30376,-0.49561 -0.11191,-14.30874 -0.19185,-0.31975 0.28777,-0.44765 0.048,-8.74512 -0.15988,-0.41567 1.32696,-2.57397 5.88337,3.51723 -7.18028,-0.95113 -4.38627,1.48093 5.66371,-4.03582"
         id="path3" /><path
         style="fill:none;stroke:#000000;stroke-width:0.93001239;stroke-linecap:butt;stroke-linejoin:miter;stroke-dasharray:none;stroke-opacity:1"
         d="m 131.96014,128.89056 c 0,0 0.19185,-5.49967 0.0959,-5.65955 -0.0959,-0.15987 -0.5116,-0.47962 -0.3837,-0.57555 0.1279,-0.0959 0.47962,-0.47962 0.47962,-0.47962 l 0.0639,-20.78364 -0.95925,-1.406892 2.07837,-2.462062"
         id="path4" /><path
         style="fill:none;stroke:#000000;stroke-width:0.93001239;stroke-linecap:butt;stroke-linejoin:miter;stroke-dasharray:none;stroke-opacity:1"
         d="m 142.47986,97.075597 1.05517,2.142313 -0.19185,0.735423 v 0.511597 l -0.032,21.29524 0.064,0.54357 -0.19185,0.28777 0.15987,5.56362"
         id="path5" /><path
         style="fill:none;stroke:#000000;stroke-width:0.93001239;stroke-linecap:butt;stroke-linejoin:miter;stroke-dasharray:none;stroke-opacity:1"
         d="m 121.18462,183.15185 -73.09447,15.09212 c 0,0 6.714715,-8.18555 16.818763,-27.17861"
         id="path6" /><path
         style="fill:none;stroke:#000000;stroke-width:0.93001239;stroke-linecap:butt;stroke-linejoin:miter;stroke-dasharray:none;stroke-opacity:1"
         d="m 121.12067,153.67105 -54.868814,16.24322 -0.03198,-0.61551 0.247807,-0.20784 c 0,0 -0.439656,-0.19185 -0.439656,-0.24781 0,-0.0559 -0.09592,-0.8873 -0.09592,-0.8873 0,0 0.999215,-0.81536 -0.03198,-1.31896 -1.031187,-0.5036 -1.0152,0.87931 -1.0152,0.87931 0,0 -0.06395,0.23181 0.34373,0.3757 0.407678,0.14389 -0.271785,1.10313 -0.271785,1.10313 l -0.263792,0.048 0.23981,0.27977 -0.03997,1.77461"
         id="path7" /><path
         style="fill:none;stroke:#000000;stroke-width:0.93001239;stroke-linecap:butt;stroke-linejoin:miter;stroke-dasharray:none;stroke-opacity:1"
         d="m 45.174024,232.1556 -0.09044,-8.41078 0.406974,-0.81395 -0.04522,-15.69107 4.386267,-7.91337 -1.266139,-1.08526"
         id="path8" /><path
         style="fill:none;stroke:#000000;stroke-width:0.93001239;stroke-linecap:butt;stroke-linejoin:miter;stroke-dasharray:none;stroke-opacity:1"
         d="m 50.600334,228.69633 -0.04522,-5.85589 0.520023,-0.927 v -15.7589 l 4.431485,-7.93598 -0.972214,-1.24353"
         id="path9" /><path
         style="fill:none;stroke:#000000;stroke-width:0.93001239;stroke-linecap:butt;stroke-linejoin:miter;stroke-dasharray:none;stroke-opacity:1"
         d="m 60.208614,222.6088 -0.06395,-0.83135 0.415671,-1.11912 -0.09593,-16.27519 4.156728,-8.02568 -1.119118,-1.1511"
         id="path10" /><path
         style="fill:none;stroke:#000000;stroke-width:0.93001239;stroke-linecap:butt;stroke-linejoin:miter;stroke-dasharray:none;stroke-opacity:1"
         d="m 70.056861,218.80379 c 0,-0.2558 -0.06395,-15.92347 -0.06395,-15.92347 l 4.156729,-8.5053 -1.502815,-1.1511"
         id="path11" /><path
         style="fill:none;stroke:#000000;stroke-width:0.93001239;stroke-linecap:butt;stroke-linejoin:miter;stroke-dasharray:none;stroke-opacity:1"
         d="m 49.049397,266.54223 c 0,-0.83135 -0.06395,-8.44137 -0.06395,-8.44137 l -0.575548,-0.44764 0.639498,-0.83135 0.06395,-23.08583 -0.43483,-0.5404 47.321938,-4.52192"
         id="path12" /><path
         style="fill:none;stroke:#000000;stroke-width:0.93001239;stroke-linecap:butt;stroke-linejoin:miter;stroke-dasharray:none;stroke-opacity:1"
         d="m 48.617735,233.11253 c 0,0 19.680512,-7.05045 33.173891,-19.13694"
         id="path13" /><path
         style="fill:none;stroke:#000000;stroke-width:0.93001239;stroke-linecap:butt;stroke-linejoin:miter;stroke-dasharray:none;stroke-opacity:1"
         d="m 67.557551,224.08396 13.023144,-15.7589 -0.09044,-12.07354 3.587572,-4.49844 -0.543573,-0.77539"
         id="path14" /><path
         style="fill:none;stroke:#000000;stroke-width:0.93001239;stroke-linecap:butt;stroke-linejoin:miter;stroke-dasharray:none;stroke-opacity:1"
         d="m 82.94272,191.52926 -0.375703,-0.31975"
         id="path15" /><path
         style="fill:none;stroke:#000000;stroke-width:0.93001239;stroke-linecap:butt;stroke-linejoin:miter;stroke-dasharray:none;stroke-opacity:1"
         d="m 49.040272,234.05481 -8.99863,1.58267"
         id="path16" /><path
         style="fill:none;stroke:#000000;stroke-width:0.93001239;stroke-linecap:butt;stroke-linejoin:miter;stroke-dasharray:none;stroke-opacity:1"
         d="m 104.34341,211.2417 -0.13566,-16.97983 2.60011,-6.71505 -0.56525,-1.24353"
         id="path17" /><path
         style="fill:none;stroke:#000000;stroke-width:0.93001239;stroke-linecap:butt;stroke-linejoin:miter;stroke-dasharray:none;stroke-opacity:1"
         d="m 93.264692,212.39479 v -15.985 l 2.690546,-6.78289 -0.61046,-1.13048"
         id="path18" /><path
         style="fill:none;stroke:#000000;stroke-width:0.93001239;stroke-linecap:butt;stroke-linejoin:miter;stroke-dasharray:none;stroke-opacity:1"
         d="m 116.50738,204.16489 -0.22609,-12.36747 2.6001,-6.91854 -0.58785,-1.06265"
         id="path19" /><path
         style="fill:none;stroke:#000000;stroke-width:0.93001239;stroke-linecap:butt;stroke-linejoin:miter;stroke-dasharray:none;stroke-opacity:1"
         d="m 54.443971,256.39312 c 0,-0.40698 -2.080086,-22.51919 2.351399,-21.93134 4.431488,0.58785 1.899209,21.70524 1.899209,21.70524 z"
         id="path20" /><path
         style="fill:none;stroke:#000000;stroke-width:0.93001239;stroke-linecap:butt;stroke-linejoin:miter;stroke-dasharray:none;stroke-opacity:1"
         d="m 64.482643,248.93194 c 0,0 -1.040043,-17.81638 2.713154,-15.82673 3.753197,1.98964 2.125305,15.73629 2.125305,15.73629 z"
         id="path21" /><path
         style="fill:none;stroke:#000000;stroke-width:0.93001239;stroke-linecap:butt;stroke-linejoin:miter;stroke-dasharray:none;stroke-opacity:1"
         d="m 75.561358,256.30268 c 0,0 -2.441839,-26.67936 2.487057,-22.97138 4.928899,3.70798 2.713154,22.7905 2.713154,22.7905 z"
         id="path22" /><path
         style="fill:none;stroke:#000000;stroke-width:0.93001239;stroke-linecap:butt;stroke-linejoin:miter;stroke-dasharray:none;stroke-opacity:1"
         d="m 87.182702,255.76004 c 0,0 -2.487057,-24.87058 2.667937,-22.79049 5.154993,2.08008 2.667934,22.83571 2.667934,22.83571 z"
         id="path23" /><path
         style="fill:none;stroke:#000000;stroke-width:0.93001239;stroke-linecap:butt;stroke-linejoin:miter;stroke-dasharray:none;stroke-opacity:1"
         d="m 49.01766,257.02618 12.797047,-0.0452 -0.09044,-6.96376 0.542632,-0.63307 8.546435,0.0452 -0.135657,8.09425 25.322776,-0.49742"
         id="path24" /><path
         style="fill:none;stroke:#000000;stroke-width:0.93001239;stroke-linecap:butt;stroke-linejoin:miter;stroke-dasharray:none;stroke-opacity:1"
         d="m 64.844397,266.65787 c 0.09044,-0.45217 0.180877,-12.84225 2.3514,-11.5535 2.170523,1.28875 1.447017,11.50829 1.447017,11.50829 z"
         id="path25" /><path
         style="fill:none;stroke:#000000;stroke-width:0.93001239;stroke-linecap:butt;stroke-linejoin:miter;stroke-dasharray:none;stroke-opacity:1"
         d="m 112.55142,219.09157 -0.31975,47.57856"
         id="path26" /><path
         style="fill:none;stroke:#000000;stroke-width:0.93001239;stroke-linecap:butt;stroke-linejoin:miter;stroke-dasharray:none;stroke-opacity:1"
         d="m 124.95765,266.86197 0.44765,-66.57161 -7.41816,7.29026 -5.94732,0.8953"
         id="path27" /><path
         style="fill:none;stroke:#000000;stroke-width:0.93001239;stroke-linecap:butt;stroke-linejoin:miter;stroke-dasharray:none;stroke-opacity:1"
         d="m 118.40281,207.2289 -0.3837,59.76097"
         id="path28" /><path
         style="fill:none;stroke:#000000;stroke-width:0.93001239;stroke-linecap:butt;stroke-linejoin:miter;stroke-dasharray:none;stroke-opacity:1"
         d="m 152.32811,99.633584 2.68589,-1.151094 0.31975,-9.848249 0.89529,-1.023194 -0.70344,-10.231948 -1.4069,9.336651 -2.17429,-23.917174 -1.53479,17.650107 -0.95924,-14.004977 -0.7674,14.196827 -1.53479,-18.417506 -1.34294,16.371115 -4.79623,-60.240587 -5.94732,61.839329 -0.70345,-12.278336 -1.08714,16.243215 c 0,0 -2.04639,-20.847592 -2.04639,-21.103391 0,-0.255796 -1.15109,13.877078 -1.15109,13.877078 l -1.08715,-11.510938 v 18.993051 l -1.02319,-7.865809 -0.7674,10.231946 -1.08714,-6.906565 -0.19185,17.778008 6.33102,0.319751"
         id="path29" /><path
         style="fill:none;stroke:#000000;stroke-width:0.93001239;stroke-linecap:butt;stroke-linejoin:miter;stroke-dasharray:none;stroke-opacity:1"
         d="m 135.98897,121.88807 0.15988,-18.16171 c 0,0 0.31974,-1.56676 1.47084,-1.59874 1.15109,-0.032 1.63071,1.59874 1.63071,1.59874 l 0.032,18.16171 z"
         id="path30" /><path
         style="fill:none;stroke:#000000;stroke-width:0.93001239;stroke-linecap:butt;stroke-linejoin:miter;stroke-dasharray:none;stroke-opacity:1"
         d="m 146.57264,122.17584 0.064,-18.19368 c 0,0 0.032,-1.34294 1.15109,-1.21504 1.11912,0.1279 1.279,1.56677 1.279,1.56677 l 0.19185,18.25762 z"
         id="path31" /><path
         style="fill:none;stroke:#000000;stroke-width:0.93001239;stroke-linecap:butt;stroke-linejoin:miter;stroke-dasharray:none;stroke-opacity:1"
         d="m 129.88178,122.97521 0.28777,-17.93788 c 0,0 0.1279,-1.53479 -0.99122,-1.40689 -1.11912,0.1279 -1.0232,6.74669 -1.0232,6.74669 l -0.0639,13.26956 z"
         id="path32" /><path
         style="fill:none;stroke:#000000;stroke-width:0.93001239;stroke-linecap:butt;stroke-linejoin:miter;stroke-dasharray:none;stroke-opacity:1"
         d="m 152.93563,123.74261 0.22383,-17.13851 c 0,0 -0.032,-1.82257 0.28777,-1.50282 0.31975,0.31975 0.3837,2.90971 0.3837,2.90971 l -0.064,16.75481 z"
         id="path33" /><path
         style="fill:none;stroke:#000000;stroke-width:0.93001239;stroke-linecap:butt;stroke-linejoin:miter;stroke-dasharray:none;stroke-opacity:1"
         d="m 127.60871,139.18483 -0.0226,-8.16207 c 0,0 0.33915,-4.06973 1.44702,-4.02451 1.10787,0.0452 1.13048,3.59493 1.13048,3.59493 l 0.0678,7.84554 z"
         id="path34" /><path
         style="fill:none;stroke:#000000;stroke-width:0.93001239;stroke-linecap:butt;stroke-linejoin:miter;stroke-dasharray:none;stroke-opacity:1"
         d="m 127.40522,154.12979 -0.0904,-9.13428 c 0,0 0.0452,-3.02969 1.28875,-2.93925 1.24353,0.0904 1.31136,3.18795 1.31136,3.18795 l 0.11305,8.07164 z"
         id="path35" /><path
         style="fill:none;stroke:#000000;stroke-width:0.93001239;stroke-linecap:butt;stroke-linejoin:miter;stroke-dasharray:none;stroke-opacity:1"
         d="m 127.09997,170.42587 -0.1279,-10.00813 c 0,0 0.0959,-3.32538 1.21504,-3.03761 1.11912,0.28778 1.34294,3.22946 1.34294,3.22946 l 0.15988,9.2727 z"
         id="path36" /><path
         style="fill:none;stroke:#000000;stroke-width:0.93001239;stroke-linecap:butt;stroke-linejoin:miter;stroke-dasharray:none;stroke-opacity:1"
         d="m 127.03602,186.44526 0.0959,-9.56048 c 0,0 0.73542,-3.35735 1.18307,-2.81378 0.44765,0.54357 1.0232,1.47084 1.05517,2.78181 0.032,1.31097 0.19185,9.11283 0.19185,9.11283 z"
         id="path37" /><path
         style="fill:none;stroke:#000000;stroke-width:0.93001239;stroke-linecap:butt;stroke-linejoin:miter;stroke-dasharray:none;stroke-opacity:1"
         d="m 127.35577,202.94427 -0.0959,-9.59245 c 0,0 0.57555,-3.38933 1.15109,-3.22945 0.57555,0.15987 1.24702,3.45328 1.24702,3.45328 l 0.0959,8.95295 z"
         id="path38" /><path
         style="fill:none;stroke:#000000;stroke-width:0.93001239;stroke-linecap:butt;stroke-linejoin:miter;stroke-dasharray:none;stroke-opacity:1"
         d="m 128.51309,217.27847 -0.0226,-9.02124 c 0,0 0.42958,-2.69055 0.9496,-2.12531 0.52002,0.56524 0.83656,2.23836 0.83656,2.23836 l -0.13566,8.81775 z"
         id="path39" /><path
         style="fill:none;stroke:#000000;stroke-width:0.93001239;stroke-linecap:butt;stroke-linejoin:miter;stroke-dasharray:none;stroke-opacity:1"
         d="m 131.38451,217.1202 -0.0904,-9.24733 c 0,0 0.27132,-2.50967 0.88178,-2.14792 0.61046,0.36176 0.927,2.30618 0.927,2.30618 l -0.0226,9.06646 z"
         id="path40" /><path
         style="fill:none;stroke:#000000;stroke-width:0.93001239;stroke-linecap:butt;stroke-linejoin:miter;stroke-dasharray:none;stroke-opacity:1"
         d="m 127.5861,227.72412 -0.11305,-3.61754 0.90439,-0.0226 0.0226,3.5045 z"
         id="path41" /><path
         style="fill:none;stroke:#000000;stroke-width:0.93001239;stroke-linecap:butt;stroke-linejoin:miter;stroke-dasharray:none;stroke-opacity:1"
         d="m 127.60871,242.82734 -0.0452,-3.64015 0.85917,0.0452 -0.0226,3.48188 -0.79133,0.20349 z"
         id="path42" /><path
         style="fill:none;stroke:#000000;stroke-width:0.93001239;stroke-linecap:butt;stroke-linejoin:miter;stroke-dasharray:none;stroke-opacity:1"
         d="m 88.132308,212.62089 v -14.10841 c 0,0 0.542631,-4.11495 1.627891,-3.57232 1.085263,0.54263 1.35658,2.93925 1.35658,2.93925 l 0.316534,14.37972 z"
         id="path43" /><path
         style="fill:none;stroke:#000000;stroke-width:0.93001239;stroke-linecap:butt;stroke-linejoin:miter;stroke-dasharray:none;stroke-opacity:1"
         d="m 98.532734,211.39997 0.04522,-14.37972 c 0,0 0.542631,-4.9289 1.808766,-4.20539 1.26614,0.72351 1.44702,4.25061 1.44702,4.25061 l 0.0904,13.38489 z"
         id="path44" /><path
         style="fill:none;stroke:#000000;stroke-width:0.93001239;stroke-linecap:butt;stroke-linejoin:miter;stroke-dasharray:none;stroke-opacity:1"
         d="m 113.59074,206.74238 -0.13566,-12.88748 c 0,0 -0.81394,-2.62272 -1.71833,-3.21057 -0.90438,-0.58785 -1.67311,3.43667 -1.67311,3.43667 l -0.2261,15.32932 2.18629,-0.56669"
         id="path45" /><path
         style="fill:none;stroke:#000000;stroke-width:0.93001239;stroke-linecap:butt;stroke-linejoin:miter;stroke-dasharray:none;stroke-opacity:1"
         d="m 76.601401,210.94778 -0.04522,-9.81258 c 0,0 1.13048,-5.10978 1.605283,-4.65758 0.474802,0.45219 1.040042,1.78616 1.040042,1.78616"
         id="path46" /><path
         style="fill:none;stroke:#000000;stroke-width:0.93001239;stroke-linecap:butt;stroke-linejoin:miter;stroke-dasharray:none;stroke-opacity:1"
         d="m 99.663214,258.11145 -0.271314,-1.22092 0.180877,-0.36176 v -1.53745 l -0.452194,-0.31654 0.406974,-0.22609 0.180877,-14.06319 -0.497411,-0.54263 0.406971,-0.31653 0.406976,-0.2261 0.18088,-0.81395 c 0,0 0.13565,-0.18087 0.45219,-0.18087 0.31653,0 0.67829,-0.0904 0.67829,-0.0904 0,0 0.0904,-0.27132 -0.13566,-0.40697 -0.2261,-0.13566 -0.27132,0.0452 -0.27132,-0.27132 0,-0.31653 -0.40697,-0.18088 0.0452,-0.40697 0.4522,-0.2261 0.40698,-0.0904 0.54263,-0.40697 0.13566,-0.31654 0,-0.63308 0.2261,-0.85917 0.2261,-0.2261 0.40697,-0.31654 0.40697,-0.31654 l 3.39145,0.18088 c 0,0 0.85916,1.31136 1.53745,1.62789 0.67829,0.31654 -0.36175,0.90439 -0.36175,0.90439 l 0.36175,0.36175 0.40697,0.13566 0.2261,0.31653 0.0452,0.4522 0.54263,0.22609 0.27131,0.0452 c 0,0 0.4522,0.13566 0.31654,0.31654 -0.13566,0.18087 -0.0904,0.13565 -0.18088,0.49741 -0.0904,0.36175 -0.13566,0.40697 -0.13566,0.40697 l -0.58784,-0.0904 -0.0904,0.72351 0.18087,12.79705 0.4522,0.40697 -0.54263,0.27132 0.0904,1.49223 c 0,0 0.40698,0.58785 0.31654,0.85917 -0.0904,0.27131 -0.0904,1.44701 -0.0904,1.44701 l -0.85917,-0.99482 c 0,0 -0.40697,0 -0.63306,0.18088 -0.2261,0.18087 0.0904,0.36175 -0.31654,0.45219 -0.40697,0.0904 -0.40697,0 -0.49741,0.18088 -0.0904,0.18087 -0.45219,0.36175 -0.45219,0.36175 l -0.58786,-0.2261"
         id="path47" /><path
         style="fill:none;stroke:#000000;stroke-width:0.93001239;stroke-linecap:butt;stroke-linejoin:miter;stroke-dasharray:none;stroke-opacity:1"
         d="m 81.846832,214.0679 1.040042,-0.13565 2.034866,-0.90439 7.144641,-0.9496 -0.09044,0.99482 1.220917,-0.2261 v -0.45219 l 2.170525,-0.9496 c 0,0 2.848812,-0.18088 3.029689,-0.18088 0.180877,0 4.521928,-1.04004 4.521928,-1.04004 l 0.0904,0.85916 1.1757,0.0452 2.21574,-1.49223 3.5271,-0.27132"
         id="path48" /><path
         style="fill:none;stroke:#000000;stroke-width:0.93001239;stroke-linecap:butt;stroke-linejoin:miter;stroke-dasharray:none;stroke-opacity:1"
         d="m 199.20322,264.62373 c 0,-0.57555 -0.3837,-43.54973 -0.3837,-43.54973 l 0.5116,-0.19185 -0.8953,-0.51159 -0.064,-29.3529 0.6395,-0.2558 -1.0232,-0.70344 0.19185,-14.19683 0.6395,-0.2558 -0.57555,-0.57555 -0.1279,-19.057 0.57555,-0.44764 -0.44765,-0.3837 -0.0639,-20.7197 c 0,0 0.70345,0.2558 0.70345,0 0,-0.2558 0.44765,-0.95924 0.44765,-0.95924 l -0.6395,-0.57555 0.5116,-0.44765 -2.17429,-1.40689 -0.44765,-3.83698 1.34294,-0.76739 -0.63949,-1.47085 c 0,0 -0.57555,-0.064 -0.6395,-0.31975 -0.064,-0.25579 -0.2558,-3.00563 -2.62193,-4.02882 -2.36614,-1.0232 -3.96488,3.96487 -4.02883,4.15672 -0.064,0.19185 -1.11912,0.79937 -1.11912,0.79937 l 0.83134,1.56677 -0.19185,0.67147 3.64513,3.13354 0.1279,-4.18871 -0.35172,-1.34294 0.35172,-0.73542 c 0,0 -0.86332,-1.24702 0.0959,-4.1887"
         id="path49" /><path
         style="fill:none;stroke:#000000;stroke-width:0.93001239;stroke-linecap:butt;stroke-linejoin:miter;stroke-dasharray:none;stroke-opacity:1"
         d="m 159.26218,135.88383 0.67829,0.27132 -0.0452,18.40423 12.43529,19.12774 -0.72351,-0.0452 5.56197,8.50122 -17.22853,-1.76355"
         id="path50" /><path
         style="fill:none;stroke:#000000;stroke-width:0.93001239;stroke-linecap:butt;stroke-linejoin:miter;stroke-dasharray:none;stroke-opacity:1"
         d="m 176.64898,182.18833 -0.74612,0.927 -15.985,-1.76355"
         id="path51" /><path
         style="fill:none;stroke:#000000;stroke-width:0.93001239;stroke-linecap:butt;stroke-linejoin:miter;stroke-dasharray:none;stroke-opacity:1"
         d="m 176.46911,180.84966 c -0.28777,-1.69466 -0.15987,-7.16236 -0.15987,-7.16236 l -0.28778,-0.41567 0.35173,-0.57555 -0.1279,-19.63255 -0.1279,-0.41567 0.28777,-0.41567 0.032,-21.39117 -0.28778,-1.75861 0.73542,-1.85454 0.064,-3.32539 -0.86332,-1.63071 -1.85454,0.0639 -2.23824,1.18307 1.37492,0.99121 -0.1279,4.47648"
         id="path52" /><path
         style="fill:none;stroke:#000000;stroke-width:0.93001239;stroke-linecap:butt;stroke-linejoin:miter;stroke-dasharray:none;stroke-opacity:1"
         d="m 180.94559,128.57081 -0.19185,-3.93291 1.27899,-1.66269 -1.11912,-0.73542 -0.15987,-0.5116 c 0,0 0.22382,-2.81378 -2.87774,-3.86895 -3.10155,-1.05517 -4.5724,4.86017 -4.5724,4.86017"
         id="path53" /><path
         style="fill:none;stroke:#000000;stroke-width:0.93001239;stroke-linecap:butt;stroke-linejoin:miter;stroke-dasharray:none;stroke-opacity:1"
         d="m 177.30046,117.76331 c 0.22382,0.2558 1.24701,1.21505 1.15109,3.54921 0,0.1279 0.57555,1.0232 0.57555,1.0232 l -0.5116,1.59874 -0.15987,4.60438"
         id="path54" /><path
         style="fill:none;stroke:#000000;stroke-width:0.93001239;stroke-linecap:butt;stroke-linejoin:miter;stroke-dasharray:none;stroke-opacity:1"
         d="m 176.05344,122.27177 c 0.28777,0 2.87773,0.1279 2.87773,0.1279 l 3.00564,0.57554"
         id="path55" /><path
         style="fill:none;stroke:#000000;stroke-width:0.93001239;stroke-linecap:butt;stroke-linejoin:miter;stroke-dasharray:none;stroke-opacity:1"
         d="m 198.85149,132.59964 -22.44633,-3.70908 -17.23443,4.98807"
         id="path56" /><path
         style="fill:none;stroke:#000000;stroke-width:0.93001239;stroke-linecap:butt;stroke-linejoin:miter;stroke-dasharray:none;stroke-opacity:1"
         d="m 176.30983,182.45965 v 6.05938 l -0.58785,0.54263 0.58785,0.31654 -0.13565,15.19366 -0.58785,0.67829 0.49741,0.49741 0.13566,6.96377"
         id="path57" /><path
         style="fill:none;stroke:#000000;stroke-width:0.93001239;stroke-linecap:butt;stroke-linejoin:miter;stroke-dasharray:none;stroke-opacity:1"
         d="m 160.48169,133.49493 c 0,0 1.1511,-0.79937 1.11912,-0.95924 -0.032,-0.15988 -0.1279,-4.4445 -0.1279,-4.4445 l -1.15109,-1.56677 0.86332,-0.60752 c 0,0 0.86332,-4.41253 3.35736,-4.06081 2.49403,0.35173 3.06958,1.21505 3.74105,4.18871"
         id="path58" /><path
         style="fill:none;stroke:#000000;stroke-width:0.93001239;stroke-linecap:butt;stroke-linejoin:miter;stroke-dasharray:none;stroke-opacity:1"
         d="m 164.38262,131.64039 0.032,-3.805 -0.3837,-1.79059 c 0,0 -0.19185,-4.25266 0.8953,-4.02883"
         id="path59" /><path
         style="fill:none;stroke:#000000;stroke-width:0.93001239;stroke-linecap:butt;stroke-linejoin:miter;stroke-dasharray:none;stroke-opacity:1"
         d="m 160.41774,126.46047 3.58119,-0.31975 4.34857,0.3837 -0.0959,-0.57555"
         id="path60" /><path
         style="fill:none;stroke:#000000;stroke-width:0.93001239;stroke-linecap:butt;stroke-linejoin:miter;stroke-dasharray:none;stroke-opacity:1"
         d="m 168.53935,126.5564 0.2558,-6.17115 -0.86332,-0.99122 1.53479,-1.40689 c 0,0 0.86332,-6.36299 5.3398,-7.25829"
         id="path61" /><path
         style="fill:none;stroke:#000000;stroke-width:0.93001239;stroke-linecap:butt;stroke-linejoin:miter;stroke-dasharray:none;stroke-opacity:1"
         d="m 183.56752,110.50503 c 0,0 3.48526,0.79937 5.2119,7.25828"
         id="path62" /><path
         style="fill:none;stroke:#000000;stroke-width:0.93001239;stroke-linecap:butt;stroke-linejoin:miter;stroke-dasharray:none;stroke-opacity:1"
         d="m 168.09171,119.36206 4.63634,-1.34295 4.02883,-0.2558"
         id="path63" /><path
         style="fill:none;stroke:#000000;stroke-width:0.93001239;stroke-linecap:butt;stroke-linejoin:miter;stroke-dasharray:none;stroke-opacity:1"
         d="m 191.30543,120.48118 c -0.35172,-0.28778 -1.91849,-1.98245 -1.91849,-1.98245 l -6.49089,-0.99121 -5.59559,0.15987"
         id="path64" /><path
         style="fill:none;stroke:#000000;stroke-width:0.93001239;stroke-linecap:butt;stroke-linejoin:miter;stroke-dasharray:none;stroke-opacity:1"
         d="m 180.11424,109.73763 c 0,0 1.31097,1.1511 2.11034,6.13917 l 0.67147,1.47084"
         id="path65" /><path
         style="fill:none;stroke:#000000;stroke-width:0.93001239;stroke-linecap:butt;stroke-linejoin:miter;stroke-dasharray:none;stroke-opacity:1"
         d="m 188.84337,117.69937 0.67147,0.86331"
         id="path66" /><path
         style="fill:none;stroke:#000000;stroke-width:0.93001239;stroke-linecap:butt;stroke-linejoin:miter;stroke-dasharray:none;stroke-opacity:1"
         d="m 172.82398,117.89121 0.92727,-1.24701 c 0,0 -0.7674,-2.43009 2.30219,-6.4909"
         id="path67" /><path
         style="fill:none;stroke:#000000;stroke-width:0.93001239;stroke-linecap:butt;stroke-linejoin:miter;stroke-dasharray:none;stroke-opacity:1"
         d="m 182.89605,117.57147 c -0.19185,0.28777 -0.31975,1.15109 -0.31975,1.15109 l -0.064,8.50531 3.00564,3.03761"
         id="path68" /><path
         style="fill:none;stroke:#000000;stroke-width:0.93001239;stroke-linecap:butt;stroke-linejoin:miter;stroke-dasharray:none;stroke-opacity:1"
         d="m 189.38694,118.53071 -0.67147,1.08715 -0.032,8.40938 3.32538,3.35735"
         id="path69" /><path
         style="fill:none;stroke:#000000;stroke-width:0.93001239;stroke-linecap:butt;stroke-linejoin:miter;stroke-dasharray:none;stroke-opacity:1"
         d="m 174.74247,110.76083 0.19185,-0.99122 -0.70345,-0.57555 0.86332,-0.92727 c 0,0 0.3837,-4.89215 0.2558,-4.9561 -0.1279,-0.0639 -1.31097,-0.86332 -1.27899,-0.99122 0.032,-0.1279 0.6395,-1.08714 0.6395,-1.08714 l 1.18306,-1.1511 0.15988,-3.133532 -0.86332,-0.86332 0.28777,-1.119121 0.19185,-0.255797 c 0,0 -2.30219,-2.653913 2.30219,-5.02005"
         id="path70" /><path
         style="fill:none;stroke:#000000;stroke-width:0.93001239;stroke-linecap:butt;stroke-linejoin:miter;stroke-dasharray:none;stroke-opacity:1"
         d="m 175.09419,108.36271 c 0.15988,-0.032 3.06959,-0.57554 3.06959,-0.57554 l 3.74105,0.1279 2.33417,0.60752 -0.73543,0.73542 0.064,1.21504 -3.26143,-0.67147 -4.25265,0.35172 -1.18307,0.5116"
         id="path71" /><path
         style="fill:none;stroke:#000000;stroke-width:0.93001239;stroke-linecap:butt;stroke-linejoin:miter;stroke-dasharray:none;stroke-opacity:1"
         d="m 181.697,109.97744 c 0,-0.49561 -0.0959,-1.24702 -0.0959,-1.24702 l 0.27179,-0.70344"
         id="path72" /><path
         style="fill:none;stroke:#000000;stroke-width:0.93001239;stroke-linecap:butt;stroke-linejoin:miter;stroke-dasharray:none;stroke-opacity:1"
         d="m 178.26862,109.88303 -0.0663,-1.21053 -0.61278,-0.71928"
         id="path73" /><path
         style="fill:none;stroke:#000000;stroke-width:0.93001239;stroke-linecap:butt;stroke-linejoin:miter;stroke-dasharray:none;stroke-opacity:1"
         d="m 183.3437,108.21883 c -0.032,-0.91129 -0.064,-5.13196 -0.064,-5.13196 l 1.40689,-1.50282 -1.82256,-1.39091 -0.032,-3.341367 c 0,0 1.23103,-1.534792 1.11912,-1.630717 -0.11191,-0.09593 -0.86332,-0.479621 -0.86332,-0.479621 0,0 1.98244,-2.430089 -1.34294,-4.732276 0,0 -1.66262,0.751409 -1.74256,-5.115973 l -0.0959,-3.213471 c 0,0 1.07115,-0.751408 0.2558,-1.406892 -0.81536,-0.655485 -1.26301,0.559559 -1.26301,0.559559 0,0 -0.032,0.527585 0.54357,0.895296 l -0.43168,7.034463 -1.08714,0.943258"
         id="path74" /><path
         style="fill:none;stroke:#000000;stroke-width:0.93001239;stroke-linecap:butt;stroke-linejoin:miter;stroke-dasharray:none;stroke-opacity:1"
         d="m 179.6586,80.048999 -0.056,-4.636352"
         id="path75" /><path
         style="fill:none;stroke:#000000;stroke-width:0.93001239;stroke-linecap:butt;stroke-linejoin:miter;stroke-dasharray:none;stroke-opacity:1"
         d="m 174.91833,101.15239 c 0.15988,0.064 3.21347,-0.60752 3.21347,-0.60752 l 3.77303,0.28777 2.68589,0.79937"
         id="path76" /><path
         style="fill:none;stroke:#000000;stroke-width:0.93001239;stroke-linecap:butt;stroke-linejoin:miter;stroke-dasharray:none;stroke-opacity:1"
         d="m 178.17976,100.51289 c 0.064,-0.23981 0.11192,-1.039181 0.11192,-1.039181 l -0.1279,-3.789018 -0.47962,-0.687459 0.35172,-0.655484 c 0,0 -1.66269,-2.989646 1.16708,-5.499672"
         id="path77" /><path
         style="fill:none;stroke:#000000;stroke-width:0.93001239;stroke-linecap:butt;stroke-linejoin:miter;stroke-dasharray:none;stroke-opacity:1"
         d="m 179.95437,89.145839 c 0,0 2.11034,0.67147 1.47084,5.259859 l 0.23981,0.543574 -0.54357,0.943257 v 3.96488 l 0.81536,0.863321"
         id="path78" /><path
         style="fill:none;stroke:#000000;stroke-width:0.93001239;stroke-linecap:butt;stroke-linejoin:miter;stroke-dasharray:none;stroke-opacity:1"
         d="m 178.01989,100.64079 0.23981,1.42288 -0.064,5.64356"
         id="path79" /><path
         style="fill:none;stroke:#000000;stroke-width:0.93001239;stroke-linecap:butt;stroke-linejoin:miter;stroke-dasharray:none;stroke-opacity:1"
         d="m 181.50515,107.78717 c -0.016,-0.1279 -0.0639,-5.38776 -0.0639,-5.38776 l 0.49561,-1.71066"
         id="path80" /><path
         style="fill:none;stroke:#000000;stroke-width:0.93001239;stroke-linecap:butt;stroke-linejoin:miter;stroke-dasharray:none;stroke-opacity:1"
         d="m 190.44085,123.33549 c -0.0226,-0.0904 0.0226,-1.8766 0.0226,-1.8766 l 0.79134,-1.01743"
         id="path81" /><path
         style="fill:none;stroke:#000000;stroke-width:0.93001239;stroke-linecap:butt;stroke-linejoin:miter;stroke-dasharray:none;stroke-opacity:1"
         d="m 166.38421,154.42372 c 0.0226,-0.11305 -0.0678,-8.65949 -0.0678,-8.65949 0,0 0.31653,-2.44183 1.89921,-2.39661 1.58267,0.0452 1.49224,2.55488 1.49224,2.55488 l 0.0904,7.73249 z"
         id="path82" /><path
         style="fill:none;stroke:#000000;stroke-width:0.93001239;stroke-linecap:butt;stroke-linejoin:miter;stroke-dasharray:none;stroke-opacity:1"
         d="m 185.10498,152.81844 c -0.0226,-0.15827 0.0452,-8.9308 0.0452,-8.9308 0,0 0.31653,-2.39662 2.17052,-2.3288 1.85399,0.0678 2.19313,2.96186 2.19313,2.96186 l 0.0904,9.29256 -4.54453,-0.49741 z"
         id="path83" /><path
         style="fill:none;stroke:#000000;stroke-width:0.93001239;stroke-linecap:butt;stroke-linejoin:miter;stroke-dasharray:none;stroke-opacity:1"
         d="m 185.36258,172.82747 c -0.0226,-0.15827 0.0452,-8.9308 0.0452,-8.9308 0,0 0.31653,-2.39662 2.17052,-2.3288 1.85399,0.0678 2.19313,2.96186 2.19313,2.96186 l 0.0904,9.29256 -4.54453,-0.49741 z"
         id="path83-3" /><path
         style="fill:none;stroke:#000000;stroke-width:0.93001239;stroke-linecap:butt;stroke-linejoin:miter;stroke-dasharray:none;stroke-opacity:1"
         d="m 145.52875,152.37097 c -0.0226,-0.15827 0.0452,-8.9308 0.0452,-8.9308 0,0 0.31653,-2.39662 2.17052,-2.3288 1.85399,0.0678 2.19313,2.96186 2.19313,2.96186 l 0.0904,9.29256 -4.54453,-0.49741 z"
         id="path83-3-6" /><path
         style="fill:none;stroke:#000000;stroke-width:0.93001239;stroke-linecap:butt;stroke-linejoin:miter;stroke-dasharray:none;stroke-opacity:1"
         d="m 145.67597,137.58796 c -0.0226,-0.15827 0.0452,-8.9308 0.0452,-8.9308 0,0 0.31653,-2.39662 2.17052,-2.3288 1.85399,0.0678 2.19313,2.96186 2.19313,2.96186 l 0.0904,9.29256 -4.54453,-0.49741 z"
         id="path83-3-2" /><path
         style="fill:none;stroke:#000000;stroke-width:0.93001239;stroke-linecap:butt;stroke-linejoin:miter;stroke-dasharray:none;stroke-opacity:1"
         d="m 145.67735,169.27477 c 0,-0.44764 0.31974,-9.6564 0.31974,-9.6564 0,0 0.3837,-3.10156 1.88652,-2.97366 1.50282,0.1279 2.17429,3.93291 2.04639,3.93291 -0.1279,0 -0.0959,9.08085 -0.0959,9.08085 z"
         id="path84" /><path
         style="fill:none;stroke:#000000;stroke-width:0.93001239;stroke-linecap:butt;stroke-linejoin:miter;stroke-dasharray:none;stroke-opacity:1"
         d="m 146.21643,185.42151 0.15826,-9.29255 c 0,0 1.01744,-2.73577 1.80877,-2.60011 0.79134,0.13566 1.92182,2.93925 1.92182,2.93925 l -0.13566,9.36039 z"
         id="path85" /><path
         style="fill:none;stroke:#000000;stroke-width:0.93001239;stroke-linecap:butt;stroke-linejoin:miter;stroke-dasharray:none;stroke-opacity:1"
         d="m 146.52157,201.62386 0.15826,-9.29255 c 0,0 1.01744,-2.73577 1.80877,-2.60011 0.79134,0.13566 1.92182,2.93925 1.92182,2.93925 l -0.13566,9.36039 z"
         id="path85-8" /><path
         style="fill:none;stroke:#000000;stroke-width:0.93001239;stroke-linecap:butt;stroke-linejoin:miter;stroke-dasharray:none;stroke-opacity:1"
         d="m 146.65492,217.56523 0.15845,-8.97176 c 0,0 1.01864,-2.64132 1.81091,-2.51035 0.79227,0.13098 1.92409,2.83779 1.92409,2.83779 l -0.13582,9.03725 z"
         id="path85-4" /><path
         style="fill:none;stroke:#000000;stroke-width:0.93001239;stroke-linecap:butt;stroke-linejoin:miter;stroke-dasharray:none;stroke-opacity:1"
         d="m 157.45341,266.74831 0.36175,-14.96756 -0.31653,-0.58785 -0.0452,-4.02451 -1.1757,-0.67829 -0.0904,-1.13048 -0.58785,-0.2261 1.58267,-0.27131 0.31654,-4.20539 0.99482,-0.72351 1.22092,0.63307 -0.31653,3.66276 3.12012,0.0452 0.31654,-0.63307 -0.18088,-3.30101 0.40697,-0.7235 0.40698,-0.58786 -0.31654,-1.04004 0.54263,-0.40697 0.0452,-0.9496 0.36176,-0.27132 0.13565,0.63307 0.4522,0.54263 0.22609,0.67829 -0.7235,0.76873 0.40697,0.54263 0.0904,0.49741 0.49741,0.27131 -0.31653,0.81395 0.0452,2.98447 9.58648,-0.18088 0.18088,-0.63306 -0.18088,-2.8036 -0.18087,-0.49741 0.40697,-0.2261 c 0,0 0,-0.76872 0.18088,-0.81394 0.18087,-0.0452 0.27131,-0.13566 0.27131,-0.13566 l -0.49741,-1.08526 0.54263,-0.81395 -0.0904,-1.13048 0.2261,-0.40697 0.40697,0.7235 c 0,0 0,0.4522 0,0.67829 0,0.2261 0.18088,0.63307 0.18088,0.63307 l 0.40697,0.45219 -0.58785,0.81395 0.40698,0.90439 0.45219,0.0904 c 0,0 0.0452,0.49741 -0.13566,0.58784 -0.18088,0.0904 -0.13566,3.07491 -0.13566,3.07491 l 0.13566,0.63307 8.41078,0.31654 -0.023,-0.59415 0.032,-2.39811 -0.25579,-0.31975 0.032,-0.57555 0.31975,-0.83134 c 0,0 -0.032,-0.44765 0.1279,-0.54357 0.15987,-0.0959 0.22382,0.064 0.22382,-0.1279 0,-0.19185 -0.032,-0.60752 -0.1279,-0.7674 -0.0959,-0.15987 -0.032,-0.54357 0.064,-0.70345 0.0959,-0.15987 0.1279,0 0.15988,-0.28777 0.032,-0.28777 0.032,-0.44765 0.032,-0.60752 0,-0.15988 -0.0959,-0.15988 0.032,-0.44765 0.1279,-0.28777 0.41567,-0.3837 0.41567,-0.3837 l 0.064,0.6395 c 0,0 0.1279,0.2558 0.0959,0.5116 -0.032,0.2558 -0.0639,0.3837 -0.0959,0.5116 -0.032,0.12789 -0.064,0.19184 0.0639,0.28777 0.1279,0.0959 0.3837,0.2558 0.3837,0.2558 0,0 0.0959,0.0959 0,0.28777 -0.0959,0.19185 -0.35173,0.31975 -0.35173,0.44765 0,0.1279 -0.0639,0.54357 -0.0639,0.54357 l 0.19184,0.35172 c 0,0 0.22383,-0.032 0.2558,0.0959 0.032,0.1279 0.31975,0.63949 0.31975,0.63949 l -0.0959,0.57555 -0.1279,2.87774 0.28777,0.60752 c 0,0 2.81379,0.064 2.81379,0.22382 0,0.15988 -1.05517,1.21505 -1.05517,1.21505 l -2.01442,1.05517 0.0959,3.0376 0.79937,0.47963 -0.44765,0.70345 c 0,0 -0.35172,-0.1279 -0.35172,0.15987 0,0.28777 0.032,0.57555 0.032,0.57555 0,0 -0.032,0.032 -0.0639,0.57554 -0.032,0.54357 0.15987,12.63005 0.15987,12.63005 l 0.41568,0.67149 0.064,1.72664 -2.84576,0.064 -0.1279,-1.98244 0.57554,-0.3837 0.2558,-13.58931 -1.08714,-1.31097 0.54357,-0.63949 0.1279,-2.68589 -8.08963,-0.31975 v 2.27022 c 0,0 0.41567,1.24701 0.31975,1.47084 -0.0959,0.22382 -0.6395,1.18307 -0.6395,1.18307 l 0.1279,13.14164 0.41567,0.47964 v 0.5116 l 0.31975,0.57555 -0.064,1.59874 -2.81379,-0.0959 -0.032,-1.6307 0.19185,-0.54359 -0.19185,-0.35171 0.44765,-0.67148 -0.032,-13.04573 -0.47962,-0.79937 -0.1279,-0.60752 0.2558,-0.3837 0.28777,-0.92727 0.064,-2.11034 -9.75232,0.1279 -0.032,2.01442 -0.0794,1.17191 -0.40697,1.65051 0.79134,13.83708 0.2487,0.13565 v 2.01226 c 0,0 -1.58267,0.31655 -1.60528,0.22611 -0.0226,-0.0905 -1.42441,-0.20349 -1.42441,-0.20349 l 0.0904,-2.01226 c 0,0 0.29393,-14.26667 0.20349,-14.35711 -0.0904,-0.0904 -1.04004,-0.81394 -1.04004,-0.81394 l 0.49741,-0.74612 0.11305,0.0452 c 0,0 0.49741,-2.5775 0.45219,-2.66794 -0.0452,-0.0904 -3.16535,-0.0678 -3.16535,-0.0678 0,0 0.15827,2.46445 0.0678,2.75838 -0.0904,0.29392 -0.13566,0.92699 -0.13566,0.92699 l -0.18087,0.76873 -0.2261,0.79134 0.29392,11.19176 -0.0452,3.54972 z"
         id="path86" /><path
         style="fill:none;stroke:#000000;stroke-width:0.93001239;stroke-linecap:butt;stroke-linejoin:miter;stroke-dasharray:none;stroke-opacity:1"
         d="M 177.71163,267.56227 C 177.82468,267.33616 177.3951,254.72 177.3951,254.72 c 0,0 -0.11305,-3.91146 2.91664,-3.75319 3.02969,0.15826 3.0523,3.57232 3.0523,3.57232 l -0.11305,12.88749 z"
         id="path87" /><path
         style="fill:none;stroke:#000000;stroke-width:0.93001239;stroke-linecap:butt;stroke-linejoin:miter;stroke-dasharray:none;stroke-opacity:1"
         d="m 166.78417,267.80816 c 0.13234,-0.22582 -0.37055,-12.82548 -0.37055,-12.82548 0,0 -0.13235,-3.90634 3.4144,-3.74828 3.54674,0.15806 3.57321,3.56765 3.57321,3.56765 l -0.13234,12.87063 z"
         id="path87-2" /><path
         style="fill:none;stroke:#000000;stroke-width:0.93001239;stroke-linecap:butt;stroke-linejoin:miter;stroke-dasharray:none;stroke-opacity:1"
         d="m 187.63725,250.33374 c 0,0 2.12531,0.20348 2.17053,2.73576 0.0452,2.53228 -0.0226,13.79187 -0.0226,13.79187 l -2.3514,-0.13566"
         id="path88" /><path
         style="fill:none;stroke:#000000;stroke-width:0.93001239;stroke-linecap:butt;stroke-linejoin:miter;stroke-dasharray:none;stroke-opacity:1"
         d="m 162.94375,212.76055 0.064,-20.4639 c 0,0 2.55799,-6.39496 5.11598,-6.20311 2.55799,0.19184 5.11597,5.49967 5.11597,5.49967 0,0 1.08715,2.81378 0.57555,8.44135 -0.5116,5.62757 -0.064,13.10969 -0.064,13.10969 z"
         id="path89" /><path
         style="fill:none;stroke:#000000;stroke-width:0.93001239;stroke-linecap:butt;stroke-linejoin:miter;stroke-dasharray:none;stroke-opacity:1"
         d="m 159.8422,241.2821 1.34294,-0.86332 c 0,0 0.032,-3.61316 0.032,-3.77303 0,-0.15988 -0.44765,-0.83135 -0.44765,-0.83135 l 1.08714,-0.60752 0.60752,-1.79059 v -0.60752 l -0.2558,-0.57555 1.08715,-6.74669 1.24702,6.84262 -0.3837,0.44764 -0.3837,0.6395 0.44765,0.6395 0.54357,0.99122 -0.57555,0.54357 0.54358,0.95924 0.0959,1.18307"
         id="path90" /><path
         style="fill:none;stroke:#000000;stroke-width:0.93001239;stroke-linecap:butt;stroke-linejoin:miter;stroke-dasharray:none;stroke-opacity:1"
         d="m 164.86225,235.01503 0.28777,-0.92727 0.83134,-0.0959 0.44765,-0.99122 -0.89529,-0.99122 1.24702,-6.71472 1.11912,6.58682 -0.6395,0.99122 0.22382,1.11912 0.8953,0.2558 -1.98244,1.43886 -0.35173,4.06081 -1.02319,1.47084"
         id="path91" /><path
         style="fill:none;stroke:#000000;stroke-width:0.93001239;stroke-linecap:butt;stroke-linejoin:miter;stroke-dasharray:none;stroke-opacity:1"
         d="m 168.76318,240.83445 c -0.064,-0.1279 0,-7.92976 0,-7.92976 l -1.24702,-0.1279"
         id="path92" /><path
         style="fill:none;stroke:#000000;stroke-width:0.93001239;stroke-linecap:butt;stroke-linejoin:miter;stroke-dasharray:none;stroke-opacity:1"
         d="m 133.65481,97.203497 c 0,-0.255799 0.064,-11.638841 0.064,-11.638841 l 4.22067,-21.039441 4.28463,20.719692 -0.1279,11.510941"
         id="path93" /><path
         style="fill:none;stroke:#000000;stroke-width:0.93001239;stroke-linecap:butt;stroke-linejoin:miter;stroke-dasharray:none;stroke-opacity:1"
         d="m 172.95188,242.68899 c 0.064,-0.2558 0.1279,-6.49089 -0.032,-6.55484 -0.15987,-0.064 -0.67147,-0.73542 -0.67147,-0.73542 l 1.56677,-1.98244 -0.83135,-1.21504 1.0232,-7.35421 1.05517,7.22631 -0.57555,1.21504 1.66269,2.52601 v 1.66269"
         id="path94" /><path
         style="fill:none;stroke:#000000;stroke-width:0.93001239;stroke-linecap:butt;stroke-linejoin:miter;stroke-dasharray:none;stroke-opacity:1"
         d="m 180.52992,225.64641 c -0.28778,1.85454 -0.73543,6.87459 -0.73543,6.87459 l 0.67148,0.95924 -3.13354,2.68589 0.57555,1.50281 -0.032,5.17993"
         id="path95" /><path
         style="fill:none;stroke:#000000;stroke-width:0.93001239;stroke-linecap:butt;stroke-linejoin:miter;stroke-dasharray:none;stroke-opacity:1"
         d="m 184.55874,240.8984 c -0.54357,-0.35172 -1.37491,-1.63072 -1.37491,-1.63072 l 0.032,-2.87773 0.54357,-0.41567 -2.46206,-2.52602 0.70345,-1.05516 -1.43887,-6.68274"
         id="path96" /><path
         style="fill:none;stroke:#000000;stroke-width:0.93001239;stroke-linecap:butt;stroke-linejoin:miter;stroke-dasharray:none;stroke-opacity:1"
         d="m 179.50672,233.92789 -0.73542,-0.99122 0.67147,-6.84262 0.67147,2.58997"
         id="path97" /><path
         style="fill:none;stroke:#000000;stroke-width:0.93001239;stroke-linecap:butt;stroke-linejoin:miter;stroke-dasharray:none;stroke-opacity:1"
         d="m 176.82083,236.0702 0.032,-17.10653 1.47084,-1.43887 c 0,0 -1.88651,-1.85454 -1.88651,-2.07837 0,-0.22382 -0.22383,-3.00563 -0.22383,-3.00563 l -0.57555,2.46206 -0.35172,-3.45328 -1.50282,4.60438 -0.12789,0.89529 -5.49968,0.1279 -1.40689,-1.98244 -1.37492,2.23824 1.1511,1.66269 -0.31975,8.7611"
         id="path98" /><path
         style="fill:none;stroke:#000000;stroke-width:0.93001239;stroke-linecap:butt;stroke-linejoin:miter;stroke-dasharray:none;stroke-opacity:1"
         d="m 168.4754,229.32351 0.0959,-7.99371 c 0,0 -0.1279,-1.53479 -0.79937,-1.43886 -0.67148,0.0959 -0.70345,1.91849 -0.70345,1.91849 v 4.47647"
         id="path99" /><path
         style="fill:none;stroke:#000000;stroke-width:0.93001239;stroke-linecap:butt;stroke-linejoin:miter;stroke-dasharray:none;stroke-opacity:1"
         d="m 169.56255,229.22759 c -0.032,-0.99122 -0.032,-7.89779 -0.032,-7.89779 0,0 -0.032,-1.82256 1.47084,-1.63071 1.50282,0.19185 1.31097,1.59874 1.31097,1.59874 l 0.032,8.15358 z"
         id="path100" /><path
         style="fill:none;stroke:#000000;stroke-width:0.93001239;stroke-linecap:butt;stroke-linejoin:miter;stroke-dasharray:none;stroke-opacity:1"
         d="m 173.65533,225.23073 0.12789,-4.4445 c 0,0 0.15988,-1.27899 1.08715,-1.02319 0.92727,0.25579 0.92727,1.66269 0.92727,1.66269 l -0.35172,8.47333 -0.70345,-0.19185"
         id="path101" /><path
         style="fill:none;stroke:#000000;stroke-width:0.93001239;stroke-linecap:butt;stroke-linejoin:miter;stroke-dasharray:none;stroke-opacity:1"
         d="m 168.4754,215.44643 -0.79937,-3.58118 -0.7674,3.19749"
         id="path102" /><path
         style="fill:none;stroke:#000000;stroke-width:0.93001239;stroke-linecap:butt;stroke-linejoin:miter;stroke-dasharray:none;stroke-opacity:1"
         d="m 168.25158,216.94925 0.86332,-1.59874 c 0,0 0.28777,-4.25266 1.95046,-5.85139 l 0.032,-1.18307 0.47962,-0.35173 0.0639,-2.74983 c 0,0 -0.60752,-0.19185 -0.3837,-0.54357 0.22383,-0.35173 0.44765,-0.44765 0.44765,-0.44765 0,0 0.67147,0.15987 0.60752,0.47962 -0.0639,0.31975 -0.38369,0.57555 -0.38369,0.57555 l 0.1279,2.65391 0.41567,0.3837 0.032,1.15109 2.46207,2.65391"
         id="path103" /><path
         style="fill:none;stroke:#000000;stroke-width:0.93001239;stroke-linecap:butt;stroke-linejoin:miter;stroke-dasharray:none;stroke-opacity:1"
         d="m 173.39953,216.46963 -0.6395,-1.08715 c 0,0 0.60752,-1.27899 -0.67147,-5.85139 l -0.0959,-1.15109"
         id="path104" /><path
         style="fill:none;stroke:#000000;stroke-width:0.93001239;stroke-linecap:butt;stroke-linejoin:miter;stroke-dasharray:none;stroke-opacity:1"
         d="m 171.76881,204.06339 v -1.88651"
         id="path105" /><path
         style="fill:none;stroke:#000000;stroke-width:0.93001239;stroke-linecap:butt;stroke-linejoin:miter;stroke-dasharray:none;stroke-opacity:1"
         d="m 171.12931,202.81637 1.1511,0.1279"
         id="path106" /><path
         style="fill:none;stroke:#000000;stroke-width:0.93001239;stroke-linecap:butt;stroke-linejoin:miter;stroke-dasharray:none;stroke-opacity:1"
         d="m 167.99578,212.9524 c 0,0 0.5116,-2.14232 2.87774,-3.42131"
         id="path107" /></g></g></svg>
