<?xml version="1.0" encoding="UTF-8" standalone="no"?>
<!-- Created with Inkscape (http://www.inkscape.org/) -->

<svg
   width="210mm"
   height="297mm"
   viewBox="0 0 210 297"
   version="1.1"
   id="svg1"
   xml:space="preserve"
   inkscape:version="1.3.2 (091e20e, 2023-11-25, custom)"
   sodipodi:docname="zamosc.svg"
   xmlns:inkscape="http://www.inkscape.org/namespaces/inkscape"
   xmlns:sodipodi="http://sodipodi.sourceforge.net/DTD/sodipodi-0.dtd"
   xmlns="http://www.w3.org/2000/svg"
   xmlns:svg="http://www.w3.org/2000/svg"><sodipodi:namedview
     id="namedview1"
     pagecolor="#505050"
     bordercolor="#eeeeee"
     borderopacity="1"
     inkscape:showpageshadow="0"
     inkscape:pageopacity="0"
     inkscape:pagecheckerboard="0"
     inkscape:deskcolor="#505050"
     inkscape:document-units="mm"
     inkscape:zoom="0.36569516"
     inkscape:cx="-310.3678"
     inkscape:cy="901.02369"
     inkscape:window-width="1920"
     inkscape:window-height="1017"
     inkscape:window-x="-8"
     inkscape:window-y="-8"
     inkscape:window-maximized="1"
     inkscape:current-layer="layer1" /><defs
     id="defs1" /><g
     inkscape:label="Warstwa 1"
     inkscape:groupmode="layer"
     id="layer1"><g
       id="g162"
       style="stroke:#000000;stroke-width:0.8;stroke-dasharray:none;stroke-opacity:1"
       transform="translate(0,-40.516442)"><path
         style="fill:none;stroke:#000000;stroke-width:0.8;stroke-linecap:butt;stroke-linejoin:miter;stroke-dasharray:none;stroke-opacity:1"
         d="m 176.35505,257.74969 -0.72351,-28.21681 0.27132,-0.36175 v -4.25061 l 0.90438,-1.08526 -0.90438,-0.81395 v -17.09287 l 0.36175,-0.54264 -0.27131,-0.99482 -0.18088,-1.35657 0.36175,-2.89404 -0.63307,-1.1757 0.27132,-11.757 0.63307,-1.53746 -0.72351,-0.63306 v -2.89404 -0.7235 l 0.90439,-1.89921 -1.08527,-0.36176 -0.0904,-9.04384 0.18087,-1.08527 -0.45219,-0.81394 0.18088,-1.22092 -0.38437,-1.1757"
         id="path1" /><path
         style="fill:none;stroke:#000000;stroke-width:0.8;stroke-linecap:butt;stroke-linejoin:miter;stroke-dasharray:none;stroke-opacity:1"
         d="m 137.28563,259.46802 -0.2261,-16.4598 1.13048,-1.26614 -1.08526,-0.67829 0.13566,-0.58785 -3.48189,-1.80877 -4.29582,-31.15606 -1.26614,-0.0904 0.13566,-9.31516 0.54262,-1.26614 c 0,0 -0.0904,-0.2261 -0.27131,-0.2261 -0.18088,0 -0.36175,-7.82293 -0.36175,-7.82293 l -1.26614,-1.94442 1.62789,-1.71833 -0.31653,-15.64586 0.0904,-1.53746 -0.0904,-4.65758 0.49741,-1.76355 18.08769,5.24543 -1.80876,1.13048 0.0904,3.48188"
         id="path2" /><path
         style="fill:none;stroke:#000000;stroke-width:0.8;stroke-linecap:butt;stroke-linejoin:miter;stroke-dasharray:none;stroke-opacity:1"
         d="m 128.92006,240.20462 -1.71833,-32.51263 -8.27512,0.67829 -0.85916,17.27375"
         id="path3" /><path
         style="fill:none;stroke:#000000;stroke-width:0.8;stroke-linecap:butt;stroke-linejoin:miter;stroke-dasharray:none;stroke-opacity:1"
         d="m 126.56866,207.73721 0.27132,-9.8578 -0.61046,-1.1757 -7.00898,0.7009 1.37918,1.19831 -0.83655,9.6317"
         id="path4" /><path
         style="fill:none;stroke:#000000;stroke-width:0.8;stroke-linecap:butt;stroke-linejoin:miter;stroke-dasharray:none;stroke-opacity:1"
         d="m 127.31478,207.64677 2.12531,-0.0904"
         id="path5" /><path
         style="fill:none;stroke:#000000;stroke-width:0.8;stroke-linecap:butt;stroke-linejoin:miter;stroke-dasharray:none;stroke-opacity:1"
         d="m 126.25213,196.6811 2.53228,0.11305"
         id="path6" /><path
         style="fill:none;stroke:#000000;stroke-width:0.8;stroke-linecap:butt;stroke-linejoin:miter;stroke-dasharray:none;stroke-opacity:1"
         d="m 126.59127,196.54544 1.19831,-27.13154 -5.33587,0.88177 -1.8992,26.81501"
         id="path7" /><path
         style="fill:none;stroke:#000000;stroke-width:0.8;stroke-linecap:butt;stroke-linejoin:miter;stroke-dasharray:none;stroke-opacity:1"
         d="M 122.67981,164.32673 V 168.713"
         id="path8" /><path
         style="fill:none;stroke:#000000;stroke-width:0.8;stroke-linecap:butt;stroke-linejoin:miter;stroke-dasharray:none;stroke-opacity:1"
         d="m 128.33222,167.92166 -23.37836,4.11495 1.69573,1.51485 -2.8273,25.42793 -1.23104,0.048 1.07116,1.45486 -0.79937,8.79308 -3.117546,0.73542 0.287776,0.43166 -2.110342,13.92504"
         id="path9" /><path
         style="fill:none;stroke:#000000;stroke-width:0.8;stroke-linecap:butt;stroke-linejoin:miter;stroke-dasharray:none;stroke-opacity:1"
         d="m 107.19563,224.84703 0.86332,-14.75638 0.55956,-0.30376 -0.0959,-0.47963 0.86332,-9.41659 -0.5116,-1.15109 0.6395,0.064 1.91849,-26.20338 -1.19906,-1.37491"
         id="path10" /><path
         style="fill:none;stroke:#000000;stroke-width:0.8;stroke-linecap:butt;stroke-linejoin:miter;stroke-dasharray:none;stroke-opacity:1"
         d="m 106.70002,173.52742 4.71629,-0.86332"
         id="path11" /><path
         style="fill:none;stroke:#000000;stroke-width:0.8;stroke-linecap:butt;stroke-linejoin:miter;stroke-dasharray:none;stroke-opacity:1"
         d="m 112.03982,172.69608 -0.11191,26.2993 0.60752,0.33573 -0.60752,0.81536 -0.14389,9.75233 -3.08557,-0.22383"
         id="path12" /><path
         style="fill:none;stroke:#000000;stroke-width:0.8;stroke-linecap:butt;stroke-linejoin:miter;stroke-dasharray:none;stroke-opacity:1"
         d="m 109.56177,198.80353 2.2862,0.20784"
         id="path13" /><path
         style="fill:none;stroke:#000000;stroke-width:0.8;stroke-linecap:butt;stroke-linejoin:miter;stroke-dasharray:none;stroke-opacity:1"
         d="m 102.63922,199.07532 6.10719,-0.3837"
         id="path14" /><path
         style="fill:none;stroke:#000000;stroke-width:0.8;stroke-linecap:butt;stroke-linejoin:miter;stroke-dasharray:none;stroke-opacity:1"
         d="m 111.49625,172.61614 10.87144,-1.98244"
         id="path15" /><path
         style="fill:none;stroke:#000000;stroke-width:0.8;stroke-linecap:butt;stroke-linejoin:miter;stroke-dasharray:none;stroke-opacity:1"
         d="m 122.51158,170.25 -0.94326,-1.08714"
         id="path16" /><path
         style="fill:none;stroke:#000000;stroke-width:0.8;stroke-linecap:butt;stroke-linejoin:miter;stroke-dasharray:none;stroke-opacity:1"
         d="m 127.85137,169.46662 0.36771,0.0959"
         id="path17" /><path
         style="fill:none;stroke:#000000;stroke-width:0.8;stroke-linecap:butt;stroke-linejoin:miter;stroke-dasharray:none;stroke-opacity:1"
         d="m 112.03982,172.74404 0.032,-0.19185"
         id="path18" /><path
         style="fill:none;stroke:#000000;stroke-width:0.8;stroke-linecap:butt;stroke-linejoin:miter;stroke-dasharray:none;stroke-opacity:1"
         d="m 111.78197,225.14662 0.13566,-9.22473 -0.49741,-0.27132 -0.0452,-1.04004 0.45219,-0.13566 0.18088,-0.81394 -1.22092,-1.04005 0.97221,-1.22091 0.0452,-1.42441"
         id="path19" /><path
         style="fill:none;stroke:#000000;stroke-width:0.8;stroke-linecap:butt;stroke-linejoin:miter;stroke-dasharray:none;stroke-opacity:1"
         d="m 99.787566,209.99817 8.761234,-0.24871"
         id="path20" /><path
         style="fill:none;stroke:#000000;stroke-width:0.8;stroke-linecap:butt;stroke-linejoin:miter;stroke-dasharray:none;stroke-opacity:1"
         d="m 128.35482,162.92494 -22.72267,4.68019 1.10787,0.56524 -0.27131,3.59493"
         id="path21" /><path
         style="fill:none;stroke:#000000;stroke-width:0.8;stroke-linecap:butt;stroke-linejoin:miter;stroke-dasharray:none;stroke-opacity:1"
         d="m 111.375,170.90613 -0.0226,-3.91146 -0.38437,-0.4522"
         id="path22" /><path
         style="fill:none;stroke:#000000;stroke-width:0.8;stroke-linecap:butt;stroke-linejoin:miter;stroke-dasharray:none;stroke-opacity:1"
         d="m 106.74002,168.07993 15.84935,-3.39144 5.67502,-1.19831"
         id="path23" /><path
         style="fill:none;stroke:#000000;stroke-width:0.8;stroke-linecap:butt;stroke-linejoin:miter;stroke-dasharray:none;stroke-opacity:1"
         d="m 122.71941,164.43058 c -0.11191,-0.0959 -0.2558,-0.23981 -0.2558,-0.23981"
         id="path24" /><path
         style="fill:none;stroke:#000000;stroke-width:0.8;stroke-linecap:butt;stroke-linejoin:miter;stroke-dasharray:none;stroke-opacity:1"
         d="m 122.63947,168.6033 0.016,0.23981"
         id="path25" /><path
         style="fill:none;stroke:#000000;stroke-width:0.8;stroke-linecap:butt;stroke-linejoin:miter;stroke-dasharray:none;stroke-opacity:1"
         d="m 111.76803,170.74561 0.016,-3.66112"
         id="path26" /><path
         style="fill:none;stroke:#000000;stroke-width:0.8;stroke-linecap:butt;stroke-linejoin:miter;stroke-dasharray:none;stroke-opacity:1"
         d="m 105.54172,167.49208 0.0226,-0.36175 -1.13048,-0.90439 24.26013,-4.72541"
         id="path27" /><path
         style="fill:none;stroke:#000000;stroke-width:0.8;stroke-linecap:butt;stroke-linejoin:miter;stroke-dasharray:none;stroke-opacity:1"
         d="m 114.21411,260.467 c 0,0 12.08648,-6.42694 10.93539,-15.18805"
         id="path28" /><path
         style="fill:none;stroke:#000000;stroke-width:0.8;stroke-linecap:butt;stroke-linejoin:miter;stroke-dasharray:none;stroke-opacity:1"
         d="m 136.9917,244.74916 h -12.02832 l 0.15827,0.56524"
         id="path29" /><path
         style="fill:none;stroke:#000000;stroke-width:0.8;stroke-linecap:butt;stroke-linejoin:miter;stroke-dasharray:none;stroke-opacity:1"
         d="m 136.92387,243.03083 -12.50312,-0.33915"
         id="path30" /><path
         style="fill:none;stroke:#000000;stroke-width:0.8;stroke-linecap:butt;stroke-linejoin:miter;stroke-dasharray:none;stroke-opacity:1"
         d="m 138.03174,241.80991 -13.54316,-0.27132 -0.0452,1.08526 0.49741,2.12531"
         id="path31" /><path
         style="fill:none;stroke:#000000;stroke-width:0.8;stroke-linecap:butt;stroke-linejoin:miter;stroke-dasharray:none;stroke-opacity:1"
         d="m 114.13337,252.05207 c 0,0 21.56958,-11.39525 1.49224,-21.52436"
         id="path32" /><path
         style="fill:none;stroke:#000000;stroke-width:0.8;stroke-linecap:butt;stroke-linejoin:miter;stroke-dasharray:none;stroke-opacity:1"
         d="m 115.66896,230.53856 -1.63423,0.3347 c 20.07734,10.12911 -1.49224,21.52436 -1.49224,21.52436 l 1.68761,0.0117 -0.016,-0.31975 -1.64671,-0.048 -0.0249,0.35599"
         id="path32-7" /><path
         style="fill:none;stroke:#000000;stroke-width:0.8;stroke-linecap:butt;stroke-linejoin:miter;stroke-dasharray:none;stroke-opacity:1"
         d="m 115.53517,202.3109 -0.13566,-9.76736 3.5271,-0.36175 0.18088,9.85779 z"
         id="path33" /><path
         style="fill:none;stroke:#000000;stroke-width:0.8;stroke-linecap:butt;stroke-linejoin:miter;stroke-dasharray:none;stroke-opacity:1"
         d="m 114.26903,225.50837 0.2261,-7.00898 c 0,0 0.0904,-2.39662 2.53227,-2.17053 0,0 1.33397,-0.27131 1.33397,1.24353"
         id="path34" /><path
         style="fill:none;stroke:#000000;stroke-width:0.8;stroke-linecap:butt;stroke-linejoin:miter;stroke-dasharray:none;stroke-opacity:1"
         d="M 125.34135,260.37107 V 246.74979"
         id="path35" /><path
         style="fill:none;stroke:#000000;stroke-width:0.8;stroke-linecap:butt;stroke-linejoin:miter;stroke-dasharray:none;stroke-opacity:1"
         d="m 101.24831,251.26623 c 0,0 13.96209,-11.04586 1.84333,-21.31063"
         id="path36" /><path
         style="fill:none;stroke:#000000;stroke-width:0.8;stroke-linecap:butt;stroke-linejoin:miter;stroke-dasharray:none;stroke-opacity:1"
         d="m 99.075752,251.28825 c 0,0 13.962088,-11.04586 1.843328,-21.31063 l 2.27124,0.0301"
         id="path36-7" /><path
         style="fill:none;stroke:#000000;stroke-width:0.8;stroke-linecap:butt;stroke-linejoin:miter;stroke-dasharray:none;stroke-opacity:1"
         d="m 96.3082,260.40305 0.06395,-3.16551 0.671472,-0.73542 0.351722,-4.47648 -0.73542,-0.73542 5.052026,0.0959 0.70344,0.83135 -1.08714,-0.0959 -0.22382,4.09277 0.51159,0.95925 0.0639,0.79937 -1.982437,2.43009 z"
         id="path37" /><path
         style="fill:none;stroke:#000000;stroke-width:0.8;stroke-linecap:butt;stroke-linejoin:miter;stroke-dasharray:none;stroke-opacity:1"
         d="m 99.569634,260.43502 c -0.19185,-1.85454 0,-3.19748 0,-3.19748 l -0.255799,-0.99122 0.479623,-4.22068 1.534792,0.0959"
         id="path38" /><path
         style="fill:none;stroke:#000000;stroke-width:0.8;stroke-linecap:butt;stroke-linejoin:miter;stroke-dasharray:none;stroke-opacity:1"
         d="m 99.793458,252.08959 c -0.495612,-0.032 -2.446075,-0.0799 -2.446075,-0.0799"
         id="path39" /><path
         style="fill:none;stroke:#000000;stroke-width:0.8;stroke-linecap:butt;stroke-linejoin:miter;stroke-dasharray:none;stroke-opacity:1"
         d="m 110.76083,260.40305 3.51723,0.0639 0.1279,-3.93291 -0.41568,-0.67147 v -3.32538 l 1.31097,0.0959 -0.0959,-0.83134 -3.38933,0.032 0.51159,0.79937 -0.0959,3.38934 -0.60752,0.54357 z"
         id="path40" /><path
         style="fill:none;stroke:#000000;stroke-width:0.8;stroke-linecap:butt;stroke-linejoin:miter;stroke-dasharray:none;stroke-opacity:1"
         d="m 101.58405,257.30149 c 0,0 11.15921,-8.12161 6.52287,-17.45826"
         id="path41" /><path
         style="fill:none;stroke:#000000;stroke-width:0.8;stroke-linecap:butt;stroke-linejoin:miter;stroke-dasharray:none;stroke-opacity:1"
         d="m 75.460608,227.34107 12.470185,7.99371 12.789937,-0.19185 c 0,0 2.30218,0.35172 4.60437,7.00249"
         id="path42" /><path
         style="fill:none;stroke:#000000;stroke-width:0.8;stroke-linecap:butt;stroke-linejoin:miter;stroke-dasharray:none;stroke-opacity:1"
         d="m 100.8806,230.05893 -10.999341,0.31975 -13.941028,-7.96173 -15.53977,0.73542 -10.45577,8.66518 -8.72913,0.28777 c 0,0 -20.815617,13.7172 -24.07705,17.55418"
         id="path43" /><path
         style="fill:none;stroke:#000000;stroke-width:0.8;stroke-linecap:butt;stroke-linejoin:miter;stroke-dasharray:none;stroke-opacity:1"
         d="m 75.508571,227.38903 -15.267984,0.60752 -10.775519,8.55327 -8.489318,0.20784 c 0,0 -24.787261,15.47528 -24.380287,19.13804"
         id="path44" /><path
         style="fill:none;stroke:#000000;stroke-width:0.8;stroke-linecap:butt;stroke-linejoin:miter;stroke-dasharray:none;stroke-opacity:1"
         d="m 42.777404,256.98096 1.130483,-11.25959 c 0,0 0.497411,-4.20539 2.939251,-3.70798 2.441837,0.49741 2.351399,3.34623 2.351399,3.34623 l -0.859165,11.93788 z"
         id="path45" /><path
         style="fill:none;stroke:#000000;stroke-width:0.8;stroke-linecap:butt;stroke-linejoin:miter;stroke-dasharray:none;stroke-opacity:1"
         d="m 51.640377,257.43316 1.356577,-12.66139 c 0,0 0.587851,-3.16535 3.029688,-2.5775 2.44184,0.58785 2.44184,4.34105 2.44184,4.34105 l -0.949603,11.12393 z"
         id="path46" /><path
         style="fill:none;stroke:#000000;stroke-width:0.8;stroke-linecap:butt;stroke-linejoin:miter;stroke-dasharray:none;stroke-opacity:1"
         d="m 61.317295,257.84013 0.994823,-13.79187 c 0,0 1.311357,-6.33069 5.607187,-5.38109 4.295828,0.9496 4.160169,5.83328 4.160169,5.83328 l -0.994823,13.65621 z"
         id="path47" /><path
         style="fill:none;stroke:#000000;stroke-width:0.8;stroke-linecap:butt;stroke-linejoin:miter;stroke-dasharray:none;stroke-opacity:1"
         d="m 74.973507,258.29232 0.949603,-12.66139 c 0,0 0.723508,-4.25061 3.979294,-3.5271 3.255785,0.72351 2.622716,4.06973 2.622716,4.06973 l -0.361754,12.34486 z"
         id="path48" /><path
         style="fill:none;stroke:#000000;stroke-width:0.8;stroke-linecap:butt;stroke-linejoin:miter;stroke-dasharray:none;stroke-opacity:1"
         d="m 85.871345,258.60886 0.587849,-12.2092 c 0,0 0.316534,-5.10978 4.20539,-4.29583 3.888854,0.81395 2.803594,5.78806 2.803594,5.78806 l -0.316537,10.8074 z"
         id="path49" /><path
         style="fill:none;stroke:#000000;stroke-width:0.8;stroke-linecap:butt;stroke-linejoin:miter;stroke-dasharray:none;stroke-opacity:1"
         d="m 16.690863,255.73472 0.03197,-5.72349 0.735421,-0.22383 -0.287773,-0.38369 -3.868955,0.032 0.351723,0.57555 0.191849,4.60437 -0.575547,1.31097 z"
         id="path50" /><path
         style="fill:none;stroke:#000000;stroke-width:0.8;stroke-linecap:butt;stroke-linejoin:miter;stroke-dasharray:none;stroke-opacity:1"
         d="m 8.0038061,256.05397 0.1808771,-2.80359 0.2034865,-3.34623 1.7861603,-0.0226 0.06783,-0.36175 -3.4366627,-0.18088 0.2713154,0.63307 0.045219,3.21056 -0.7008982,0.15827 -0.2487059,2.60011 z"
         id="path51" /><path
         style="fill:none;stroke:#000000;stroke-width:0.8;stroke-linecap:butt;stroke-linejoin:miter;stroke-dasharray:none;stroke-opacity:1"
         d="m 7.9925015,256.05397 5.7247025,-2.90921"
         id="path52" /><path
         style="fill:none;stroke:#000000;stroke-width:0.8;stroke-linecap:butt;stroke-linejoin:miter;stroke-dasharray:none;stroke-opacity:1"
         d="m 10.359846,249.53161 c 0,0 8.217533,-4.57241 15.507795,-6.87459"
         id="path53" /><path
         style="fill:none;stroke:#000000;stroke-width:0.8;stroke-linecap:butt;stroke-linejoin:miter;stroke-dasharray:none;stroke-opacity:1"
         d="m 8.6012305,249.33976 c 0,0 12.6300595,-5.3398 14.1009015,-5.5956"
         id="path54" /><path
         style="fill:none;stroke:#000000;stroke-width:0.8;stroke-linecap:butt;stroke-linejoin:miter;stroke-dasharray:none;stroke-opacity:1"
         d="m 39.702496,257.02618 c 0,0 2.215743,-19.39905 2.034865,-19.57993 -0.180877,-0.18088 -0.678288,-0.67829 -0.678288,-0.67829"
         id="path55" /><path
         style="fill:none;stroke:#000000;stroke-width:0.8;stroke-linecap:butt;stroke-linejoin:miter;stroke-dasharray:none;stroke-opacity:1"
         d="m 134.35825,238.97991 0.15988,-3.29341 c 0,0 0.38369,-2.58996 3.5492,-2.27021 3.16551,0.31975 3.48526,2.27021 3.48526,2.27021 l 0.22382,4.34858 h -0.99122 l 0.86332,1.18307 0.032,1.05517 -0.1279,0.3837 0.3837,14.03695 -4.63635,-0.032"
         id="path56" /><path
         style="fill:none;stroke:#000000;stroke-width:0.8;stroke-linecap:butt;stroke-linejoin:miter;stroke-dasharray:none;stroke-opacity:1"
         d="m 67.562824,236.03823 c 0,0 2.142313,-0.28778 1.982441,-3.16551 -0.159874,-2.87774 1.630715,-2.78181 -1.119121,-2.71786 -2.749836,0.0639 -3.133532,-0.19185 -2.685886,1.02319 0.447649,1.21504 -1.694664,4.38055 1.822566,4.86018 z"
         id="path57" /><path
         style="fill:none;stroke:#000000;stroke-width:0.8;stroke-linecap:butt;stroke-linejoin:miter;stroke-dasharray:none;stroke-opacity:1"
         d="m 146.28425,256.89052 -0.22609,-13.70143 0.40697,-0.0904 -0.40697,-1.08527 0.54263,-1.04004 -0.40697,-0.99482 0.13565,-3.5271 c 0,0 0.27132,-3.61754 3.7532,-3.39145 3.48188,0.2261 4.20539,2.71316 4.20539,2.71316 l 0.18088,3.97929 -1.08526,-0.0904 0.18087,0.76873 0.18088,0.31653 -0.0452,0.4522 0.54263,0.22609 0.0904,0.58785 -0.36175,0.40698 0.27131,0.76872 0.18088,12.16398"
         id="path58" /><path
         style="fill:none;stroke:#000000;stroke-width:0.8;stroke-linecap:butt;stroke-linejoin:miter;stroke-dasharray:none;stroke-opacity:1"
         d="M 160.52832,256.80008 V 242.963 l 0.0904,-0.27132 v -1.58267 l 0.27131,-1.31136 -0.49741,-0.54263 0.36175,-3.16535 c 0,0 0.45219,-3.79842 4.06973,-3.48188 3.61754,0.31654 4.25061,3.43666 4.25061,3.43666 l 0.0904,3.21057 -0.99482,0.0452 c 0,0 0.2261,1.31136 0.40697,1.35658 0.18088,0.0452 0.54263,0.85916 0.54263,0.85916 l -0.0452,0.45219 -0.31653,0.18088 0.49741,0.81395 0.0904,13.97274"
         id="path59" /><path
         style="fill:none;stroke:#000000;stroke-width:0.8;stroke-linecap:butt;stroke-linejoin:miter;stroke-dasharray:none;stroke-opacity:1"
         d="m 176.05344,199.84271 -47.57856,4.54043"
         id="path60" /><path
         style="fill:none;stroke:#000000;stroke-width:0.8;stroke-linecap:butt;stroke-linejoin:miter;stroke-dasharray:none;stroke-opacity:1"
         d="m 175.54184,179.25092 -48.21805,7.48211"
         id="path61" /><path
         style="fill:none;stroke:#000000;stroke-width:0.8;stroke-linecap:butt;stroke-linejoin:miter;stroke-dasharray:none;stroke-opacity:1"
         d="m 135.63725,224.65518 -0.19185,-11.70279 5.11597,-0.25579 0.19185,11.76673 z"
         id="path62" /><path
         style="fill:none;stroke:#000000;stroke-width:0.8;stroke-linecap:butt;stroke-linejoin:miter;stroke-dasharray:none;stroke-opacity:1"
         d="m 148.78821,223.89021 -0.19185,-11.70279 5.11597,-0.25579 0.19185,11.76673 z"
         id="path62-3" /><path
         style="fill:none;stroke:#000000;stroke-width:0.8;stroke-linecap:butt;stroke-linejoin:miter;stroke-dasharray:none;stroke-opacity:1"
         d="m 162.98438,222.74817 -0.19185,-11.70279 5.11597,-0.25579 0.19185,11.76673 z"
         id="path62-31" /><path
         style="fill:none;stroke:#000000;stroke-width:0.8;stroke-linecap:butt;stroke-linejoin:miter;stroke-dasharray:none;stroke-opacity:1"
         d="m 163.13086,199.36296 -0.17162,-10.46915 4.57667,-0.22883 0.17163,10.52635 z"
         id="path62-9" /><path
         style="fill:none;stroke:#000000;stroke-width:0.8;stroke-linecap:butt;stroke-linejoin:miter;stroke-dasharray:none;stroke-opacity:1"
         d="m 148.9319,200.98937 -0.17162,-10.46915 4.57667,-0.22883 0.17163,10.52635 z"
         id="path62-9-3" /><path
         style="fill:none;stroke:#000000;stroke-width:0.8;stroke-linecap:butt;stroke-linejoin:miter;stroke-dasharray:none;stroke-opacity:1"
         d="m 135.67098,202.51819 -0.17162,-10.46915 4.57667,-0.22883 0.17163,10.52635 z"
         id="path62-9-30" /><path
         style="fill:none;stroke:#000000;stroke-width:0.8;stroke-linecap:butt;stroke-linejoin:miter;stroke-dasharray:none;stroke-opacity:1"
         d="m 133.62287,162.92494 -1.13048,1.85399 -0.18088,4.25061 8.456,2.44184 v -4.06974 l 1.53745,-1.85399"
         id="path66" /><path
         style="fill:none;stroke:#000000;stroke-width:0.8;stroke-linecap:butt;stroke-linejoin:miter;stroke-dasharray:none;stroke-opacity:1"
         d="m 128.51309,162.69884 16.55025,5.15499"
         id="path67" /><path
         style="fill:none;stroke:#000000;stroke-width:0.8;stroke-linecap:butt;stroke-linejoin:miter;stroke-dasharray:none;stroke-opacity:1"
         d="m 128.37896,168.02775 3.90093,0.99122"
         id="path68" /><path
         style="fill:none;stroke:#000000;stroke-width:0.8;stroke-linecap:butt;stroke-linejoin:miter;stroke-dasharray:none;stroke-opacity:1"
         d="m 128.50686,175.19012 3.5492,-2.20627 2.43009,1.11912 3.26143,-2.36614 3.10156,1.37492 3.96488,-2.11034 2.52602,0.99122 3.13353,-2.58996 3.70908,1.34294 3.77303,-2.20626 3.10156,0.99122 3.42131,-2.65391 4.28462,1.40689 2.74984,-2.23824 c 0,0 -3.16551,-1.24702 0.47962,-4.47647"
         id="path69" /><path
         style="fill:none;stroke:#000000;stroke-width:0.8;stroke-linecap:butt;stroke-linejoin:miter;stroke-dasharray:none;stroke-opacity:1"
         d="m 136.2908,177.39509 -0.0904,5.155 3.70798,-0.58785 0.13566,-5.155 z"
         id="path70" /><path
         style="fill:none;stroke:#000000;stroke-width:0.8;stroke-linecap:butt;stroke-linejoin:miter;stroke-dasharray:none;stroke-opacity:1"
         d="m 149.60337,175.219 -0.0904,5.155 3.70798,-0.58785 0.13566,-5.155 z"
         id="path70-1" /><path
         style="fill:none;stroke:#000000;stroke-width:0.8;stroke-linecap:butt;stroke-linejoin:miter;stroke-dasharray:none;stroke-opacity:1"
         d="m 163.45124,172.6838 -0.0904,5.155 3.70798,-0.58785 0.13566,-5.155 z"
         id="path70-0" /><path
         style="fill:none;stroke:#000000;stroke-width:0.8;stroke-linecap:butt;stroke-linejoin:miter;stroke-dasharray:none;stroke-opacity:1"
         d="m 171.60703,177.62119 v -5.38109 c 0,0 0.0452,-1.22092 1.08526,-1.04004 1.04005,0.18087 0.67829,1.31136 0.67829,1.31136 l 0.36176,4.7028 z"
         id="path71" /><path
         style="fill:none;stroke:#000000;stroke-width:0.8;stroke-linecap:butt;stroke-linejoin:miter;stroke-dasharray:none;stroke-opacity:1"
         d="m 157.05693,180.22755 v -5.38109 c 0,0 0.0452,-1.22092 1.08526,-1.04004 1.04005,0.18087 0.67829,1.31136 0.67829,1.31136 l 0.36176,4.7028 z"
         id="path71-7" /><path
         style="fill:none;stroke:#000000;stroke-width:0.8;stroke-linecap:butt;stroke-linejoin:miter;stroke-dasharray:none;stroke-opacity:1"
         d="m 143.47251,182.30417 v -5.38109 c 0,0 0.0452,-1.22092 1.08526,-1.04004 1.04005,0.18087 0.67829,1.31136 0.67829,1.31136 l 0.36176,4.7028 z"
         id="path71-5" /><path
         style="fill:none;stroke:#000000;stroke-width:0.8;stroke-linecap:butt;stroke-linejoin:miter;stroke-dasharray:none;stroke-opacity:1"
         d="m 130.89479,184.22582 v -5.38109 c 0,0 0.0452,-1.22092 1.08526,-1.04004 1.04005,0.18087 0.67829,1.31136 0.67829,1.31136 l 0.36176,4.7028 z"
         id="path71-2" /><path
         style="fill:none;stroke:#000000;stroke-width:0.8;stroke-linecap:butt;stroke-linejoin:miter;stroke-dasharray:none;stroke-opacity:1"
         d="m 175.66974,181.42521 -47.51461,7.00249"
         id="path72" /><path
         style="fill:none;stroke:#000000;stroke-width:0.8;stroke-linecap:butt;stroke-linejoin:miter;stroke-dasharray:none;stroke-opacity:1"
         d="m 143.25456,221.75517 0.0452,-8.59165 h 0.36176 l -0.0904,-1.31136 c 0,0 0.2261,-0.67829 0.81395,-0.4522 0.58785,0.2261 0.45219,1.67312 0.45219,1.67312 h 0.40697 l 0.13566,8.72731 z"
         id="path73" /><path
         style="fill:none;stroke:#000000;stroke-width:0.8;stroke-linecap:butt;stroke-linejoin:miter;stroke-dasharray:none;stroke-opacity:1"
         d="m 157.27045,220.62488 0.0452,-8.59165 h 0.36176 l -0.0904,-1.31136 c 0,0 0.2261,-0.67829 0.81395,-0.4522 0.58785,0.2261 0.45219,1.67312 0.45219,1.67312 h 0.40697 l 0.13566,8.72731 z"
         id="path73-8" /><path
         style="fill:none;stroke:#000000;stroke-width:0.8;stroke-linecap:butt;stroke-linejoin:miter;stroke-dasharray:none;stroke-opacity:1"
         d="m 171.99477,219.53962 0.0452,-8.59165 h 0.36176 l -0.0904,-1.31136 c 0,0 0.2261,-0.67829 0.81395,-0.4522 0.58785,0.2261 0.45219,1.67312 0.45219,1.67312 h 0.40697 l 0.13566,8.72731 z"
         id="path73-0" /><path
         style="fill:none;stroke:#000000;stroke-width:0.8;stroke-linecap:butt;stroke-linejoin:miter;stroke-dasharray:none;stroke-opacity:1"
         d="m 130.59318,201.40651 -0.0452,-5.60718 0.31653,-0.2261 0.13566,-0.9496 c 0,0 0.0887,-0.5204 0.33648,-0.42447 0.24781,0.0959 0.23182,0.54357 0.23182,0.54357 l 0.13589,0.80736 0.45564,0.19984 -0.008,5.62758 -0.2558,0.12789 -0.032,0.73542 c 0,0 -0.11795,0.49966 -0.44579,0.53357 -0.32784,0.0339 -0.53133,-0.4861 -0.53133,-0.4861 l -0.0226,-0.72351 z"
         id="path74" /><path
         style="fill:none;stroke:#000000;stroke-width:0.8;stroke-linecap:butt;stroke-linejoin:miter;stroke-dasharray:none;stroke-opacity:1"
         d="m 143.31953,199.90873 -0.0452,-5.60718 0.31653,-0.2261 0.13566,-0.9496 c 0,0 0.0887,-0.5204 0.33648,-0.42447 0.24781,0.0959 0.23182,0.54357 0.23182,0.54357 l 0.13589,0.80736 0.45564,0.19984 -0.008,5.62758 -0.2558,0.12789 -0.032,0.73542 c 0,0 -0.11795,0.49966 -0.44579,0.53357 -0.32784,0.0339 -0.53133,-0.4861 -0.53133,-0.4861 l -0.0226,-0.72351 z"
         id="path74-0" /><path
         style="fill:none;stroke:#000000;stroke-width:0.8;stroke-linecap:butt;stroke-linejoin:miter;stroke-dasharray:none;stroke-opacity:1"
         d="m 157.50122,198.28757 -0.0452,-5.60718 0.31653,-0.2261 0.13566,-0.9496 c 0,0 0.0887,-0.5204 0.33648,-0.42447 0.24781,0.0959 0.23182,0.54357 0.23182,0.54357 l 0.13589,0.80736 0.45564,0.19984 -0.008,5.62758 -0.2558,0.12789 -0.032,0.73542 c 0,0 -0.11795,0.49966 -0.44579,0.53357 -0.32784,0.0339 -0.53133,-0.4861 -0.53133,-0.4861 l -0.0226,-0.72351 z"
         id="path74-7" /><path
         style="fill:none;stroke:#000000;stroke-width:0.8;stroke-linecap:butt;stroke-linejoin:miter;stroke-dasharray:none;stroke-opacity:1"
         d="m 172.00136,196.499 -0.0452,-5.60718 0.31653,-0.2261 0.13566,-0.9496 c 0,0 0.0887,-0.5204 0.33648,-0.42447 0.24781,0.0959 0.23182,0.54357 0.23182,0.54357 l 0.13589,0.80736 0.45564,0.19984 -0.008,5.62758 -0.2558,0.12789 -0.032,0.73542 c 0,0 -0.11795,0.49966 -0.44579,0.53357 -0.32784,0.0339 -0.53133,-0.4861 -0.53133,-0.4861 l -0.0226,-0.72351 z"
         id="path74-2" /><path
         style="fill:none;stroke:#000000;stroke-width:0.8;stroke-linecap:butt;stroke-linejoin:miter;stroke-dasharray:none;stroke-opacity:1"
         d="m 158.21148,168.63527 0.25579,-0.5116 c 0,0 0,-0.47962 0,-0.60752 0,-0.1279 0.0959,-0.28777 -0.12789,-0.41567 -0.22383,-0.1279 -0.28778,-0.31975 -0.3837,-0.44765 -0.0959,-0.1279 -0.1279,0.22383 -0.15988,-0.22382 -0.032,-0.44765 -0.032,-0.70345 -0.032,-0.70345 0,0 0,-0.19185 0.15987,-0.19185 0.15988,0 0.35173,0.19185 0.5116,-0.19185 0.15987,-0.38369 0.19185,-0.22382 0.15987,-0.44764 -0.032,-0.22383 -0.0959,-0.54358 -0.0959,-0.54358 0,0 -0.19185,-0.032 0,-0.15987 0.19185,-0.1279 0.032,-0.1279 0.3837,-0.1279 0.35172,0 0.15987,-0.064 0.38369,0 0.22383,0.064 0.28778,-0.032 0.22383,0.19185 -0.0639,0.22382 0.064,0.2558 -0.1279,0.41567 -0.19185,0.15988 -0.41567,0.19185 -0.19185,0.35173 0.22382,0.15987 0.41567,0.22382 0.54357,0.25579 0.1279,0.032 0.0959,0 0.31975,0.1279 0.22382,0.1279 0.35172,0.0959 0.35172,0.2558 0,0.15987 0.28778,-0.032 -0.0959,0.41567 -0.3837,0.44765 -0.35172,0.44765 -0.57555,0.73543 -0.22382,0.28777 -0.28777,0.22382 -0.28777,0.35172 0,0.1279 0,0.19185 0,0.44765 0,0.2558 -0.0959,0.28777 0.1279,0.41567 0.22382,0.1279 0.35172,0.19185 0.47962,0.2558 0.1279,0.064 0.1279,0.032 0.2558,0.28777 0.1279,0.2558 0.22382,0.35172 0.22382,0.35172 l 0.032,0.19185"
         id="path63" /><path
         style="fill:none;stroke:#000000;stroke-width:0.8;stroke-linecap:butt;stroke-linejoin:miter;stroke-dasharray:none;stroke-opacity:1"
         d="m 187.16254,170.97727 0.25579,-0.5116 c 0,0 0,-0.47962 0,-0.60752 0,-0.1279 0.0959,-0.28777 -0.12789,-0.41567 -0.22383,-0.1279 -0.28778,-0.31975 -0.3837,-0.44765 -0.0959,-0.1279 -0.1279,0.22383 -0.15988,-0.22382 -0.032,-0.44765 -0.032,-0.70345 -0.032,-0.70345 0,0 0,-0.19185 0.15987,-0.19185 0.15988,0 0.35173,0.19185 0.5116,-0.19185 0.15987,-0.38369 0.19185,-0.22382 0.15987,-0.44764 -0.032,-0.22383 -0.0959,-0.54358 -0.0959,-0.54358 0,0 -0.19185,-0.032 0,-0.15987 0.19185,-0.1279 0.032,-0.1279 0.3837,-0.1279 0.35172,0 0.15987,-0.064 0.38369,0 0.22383,0.064 0.28778,-0.032 0.22383,0.19185 -0.0639,0.22382 0.064,0.2558 -0.1279,0.41567 -0.19185,0.15988 -0.41567,0.19185 -0.19185,0.35173 0.22382,0.15987 0.41567,0.22382 0.54357,0.25579 0.1279,0.032 0.0959,0 0.31975,0.1279 0.22382,0.1279 0.35172,0.0959 0.35172,0.2558 0,0.15987 0.28778,-0.032 -0.0959,0.41567 -0.3837,0.44765 -0.35172,0.44765 -0.57555,0.73543 -0.22382,0.28777 -0.28777,0.22382 -0.28777,0.35172 0,0.1279 0,0.19185 0,0.44765 0,0.2558 -0.0959,0.28777 0.1279,0.41567 0.22382,0.1279 0.35172,0.19185 0.47962,0.2558 0.1279,0.064 0.1279,0.032 0.2558,0.28777 0.1279,0.2558 0.22382,0.35172 0.22382,0.35172 l 0.032,0.19185"
         id="path63-1" /><path
         style="fill:none;stroke:#000000;stroke-width:0.8;stroke-linecap:butt;stroke-linejoin:miter;stroke-dasharray:none;stroke-opacity:1"
         d="m 197.55753,174.39925 0.22355,-0.44712 c 0,0 0,-0.41918 0,-0.53096 0,-0.11178 0.0838,-0.2515 -0.11177,-0.36329 -0.19562,-0.11178 -0.25151,-0.27945 -0.33535,-0.39123 -0.0838,-0.11178 -0.11178,0.19562 -0.13973,-0.19562 -0.028,-0.39123 -0.028,-0.6148 -0.028,-0.6148 0,0 0,-0.16767 0.13972,-0.16767 0.13973,0 0.3074,0.16767 0.44713,-0.16767 0.13972,-0.33534 0.16767,-0.19561 0.13972,-0.39123 -0.028,-0.19562 -0.0838,-0.47507 -0.0838,-0.47507 0,0 -0.16767,-0.028 0,-0.13973 0.16768,-0.11178 0.028,-0.11178 0.33535,-0.11178 0.30739,0 0.13972,-0.0559 0.33533,0 0.19563,0.0559 0.25152,-0.028 0.19563,0.16767 -0.0558,0.19562 0.0559,0.22357 -0.11178,0.36329 -0.16768,0.13973 -0.36329,0.16767 -0.16768,0.3074 0.19562,0.13973 0.36329,0.19562 0.47507,0.22356 0.11178,0.028 0.0838,0 0.27945,0.11178 0.19562,0.11178 0.3074,0.0838 0.3074,0.22356 0,0.13973 0.25151,-0.028 -0.0838,0.36329 -0.33535,0.39124 -0.3074,0.39124 -0.50302,0.64275 -0.19562,0.2515 -0.25151,0.19561 -0.25151,0.30739 0,0.11179 0,0.16768 0,0.39124 0,0.22356 -0.0838,0.2515 0.11179,0.36329 0.19561,0.11178 0.30739,0.16767 0.41917,0.22356 0.11178,0.0559 0.11178,0.028 0.22357,0.2515 0.11178,0.22357 0.19561,0.3074 0.19561,0.3074 l 0.028,0.16767"
         id="path63-3" /><path
         style="fill:none;stroke:#000000;stroke-width:0.8;stroke-linecap:butt;stroke-linejoin:miter;stroke-dasharray:none;stroke-opacity:1"
         d="m 103.67569,178.65922 0.2083,-0.41662 c 0,0 0,-0.39058 0,-0.49473 0,-0.10416 0.0781,-0.23435 -0.10415,-0.3385 -0.18228,-0.10416 -0.23435,-0.26039 -0.31247,-0.36455 -0.0781,-0.10415 -0.10415,0.18228 -0.13019,-0.18226 -0.0261,-0.36455 -0.0261,-0.57286 -0.0261,-0.57286 0,0 0,-0.15623 0.13019,-0.15623 0.1302,0 0.28643,0.15623 0.41662,-0.15624 0.13019,-0.31245 0.15623,-0.18226 0.13019,-0.36453 -0.0261,-0.18228 -0.0781,-0.44267 -0.0781,-0.44267 0,0 -0.15623,-0.0261 0,-0.13019 0.15624,-0.10415 0.0261,-0.10415 0.31247,-0.10415 0.28642,0 0.13019,-0.0521 0.31246,0 0.18227,0.0521 0.23435,-0.0261 0.18227,0.15623 -0.052,0.18227 0.0521,0.20831 -0.10415,0.3385 -0.15624,0.1302 -0.3385,0.15623 -0.15624,0.28643 0.18227,0.13019 0.33851,0.18227 0.44266,0.20831 0.10416,0.0261 0.0781,0 0.26039,0.10415 0.18227,0.10416 0.28642,0.0781 0.28642,0.20831 0,0.13019 0.23436,-0.0261 -0.0781,0.3385 -0.31247,0.36455 -0.28643,0.36455 -0.4687,0.5989 -0.18227,0.23435 -0.23435,0.18227 -0.23435,0.28643 0,0.10415 0,0.15623 0,0.36454 0,0.20831 -0.0781,0.23434 0.10416,0.3385 0.18227,0.10416 0.28642,0.15623 0.39058,0.20831 0.10415,0.0521 0.10415,0.0261 0.20831,0.23435 0.10415,0.20831 0.18227,0.28642 0.18227,0.28642 l 0.026,0.15623"
         id="path63-93" /><path
         style="fill:none;stroke:#000000;stroke-width:0.8;stroke-linecap:butt;stroke-linejoin:miter;stroke-dasharray:none;stroke-opacity:1"
         d="m 92.563237,180.56324 0.2083,-0.41662 c 0,0 0,-0.39058 0,-0.49473 0,-0.10416 0.0781,-0.23435 -0.10415,-0.3385 -0.18228,-0.10416 -0.23435,-0.26039 -0.31247,-0.36455 -0.0781,-0.10415 -0.10415,0.18228 -0.13019,-0.18226 -0.0261,-0.36455 -0.0261,-0.57286 -0.0261,-0.57286 0,0 0,-0.15623 0.13019,-0.15623 0.1302,0 0.28643,0.15623 0.41662,-0.15624 0.13019,-0.31245 0.15623,-0.18226 0.13019,-0.36453 -0.0261,-0.18228 -0.0781,-0.44267 -0.0781,-0.44267 0,0 -0.15623,-0.0261 0,-0.13019 0.15624,-0.10415 0.0261,-0.10415 0.31247,-0.10415 0.28642,0 0.13019,-0.0521 0.31246,0 0.18227,0.0521 0.23435,-0.0261 0.18227,0.15623 -0.052,0.18227 0.0521,0.20831 -0.10415,0.3385 -0.15624,0.1302 -0.3385,0.15623 -0.15624,0.28643 0.18227,0.13019 0.33851,0.18227 0.44266,0.20831 0.10416,0.0261 0.0781,0 0.26039,0.10415 0.18227,0.10416 0.28642,0.0781 0.28642,0.20831 0,0.13019 0.23436,-0.0261 -0.0781,0.3385 -0.31247,0.36455 -0.28643,0.36455 -0.4687,0.5989 -0.18227,0.23435 -0.23435,0.18227 -0.23435,0.28643 0,0.10415 0,0.15623 0,0.36454 0,0.20831 -0.0781,0.23434 0.10416,0.3385 0.18227,0.10416 0.28642,0.15623 0.39058,0.20831 0.10415,0.0521 0.10415,0.0261 0.20831,0.23435 0.10415,0.20831 0.18227,0.28642 0.18227,0.28642 l 0.026,0.15623"
         id="path63-93-5" /><path
         style="fill:none;stroke:#000000;stroke-width:0.8;stroke-linecap:butt;stroke-linejoin:miter;stroke-dasharray:none;stroke-opacity:1"
         d="m 81.106327,182.98503 0.2083,-0.41662 c 0,0 0,-0.39058 0,-0.49473 0,-0.10416 0.0781,-0.23435 -0.10415,-0.3385 -0.18228,-0.10416 -0.23435,-0.26039 -0.31247,-0.36455 -0.0781,-0.10415 -0.10415,0.18228 -0.13019,-0.18226 -0.0261,-0.36455 -0.0261,-0.57286 -0.0261,-0.57286 0,0 0,-0.15623 0.13019,-0.15623 0.1302,0 0.28643,0.15623 0.41662,-0.15624 0.13019,-0.31245 0.15623,-0.18226 0.13019,-0.36453 -0.0261,-0.18228 -0.0781,-0.44267 -0.0781,-0.44267 0,0 -0.15623,-0.0261 0,-0.13019 0.15624,-0.10415 0.0261,-0.10415 0.31247,-0.10415 0.28642,0 0.13019,-0.0521 0.31246,0 0.18227,0.0521 0.23435,-0.0261 0.18227,0.15623 -0.052,0.18227 0.0521,0.20831 -0.10415,0.3385 -0.15624,0.1302 -0.3385,0.15623 -0.15624,0.28643 0.18227,0.13019 0.33851,0.18227 0.44266,0.20831 0.10416,0.0261 0.0781,0 0.26039,0.10415 0.18227,0.10416 0.28642,0.0781 0.28642,0.20831 0,0.13019 0.23436,-0.0261 -0.0781,0.3385 -0.31247,0.36455 -0.28643,0.36455 -0.4687,0.5989 -0.18227,0.23435 -0.23435,0.18227 -0.23435,0.28643 0,0.10415 0,0.15623 0,0.36454 0,0.20831 -0.0781,0.23434 0.10416,0.3385 0.18227,0.10416 0.28642,0.15623 0.39058,0.20831 0.10415,0.0521 0.10415,0.0261 0.20831,0.23435 0.10415,0.20831 0.18227,0.28642 0.18227,0.28642 l 0.026,0.15623"
         id="path63-93-6" /><path
         style="fill:none;stroke:#000000;stroke-width:0.8;stroke-linecap:butt;stroke-linejoin:miter;stroke-dasharray:none;stroke-opacity:1"
         d="m 208.35672,177.66196 0.20206,-0.40414 c 0,0 0,-0.37888 0,-0.47992 0,-0.10104 0.0758,-0.22733 -0.10102,-0.32836 -0.17682,-0.10104 -0.22734,-0.25259 -0.30311,-0.35363 -0.0758,-0.10104 -0.10104,0.17682 -0.1263,-0.17681 -0.0253,-0.35363 -0.0253,-0.5557 -0.0253,-0.5557 0,0 0,-0.15155 0.12629,-0.15155 0.1263,0 0.27785,0.15155 0.40415,-0.15156 0.12629,-0.3031 0.15155,-0.17681 0.12629,-0.35362 -0.0253,-0.17681 -0.0758,-0.4294 -0.0758,-0.4294 0,0 -0.15156,-0.0253 0,-0.12629 0.15155,-0.10104 0.0253,-0.10104 0.30311,-0.10104 0.27784,0 0.12629,-0.0506 0.3031,0 0.17682,0.0506 0.22733,-0.0253 0.17682,0.15155 -0.0505,0.17681 0.0505,0.20208 -0.10104,0.32837 -0.15156,0.1263 -0.32836,0.15155 -0.15156,0.27785 0.17681,0.12629 0.32837,0.17681 0.4294,0.20206 0.10104,0.0253 0.0758,0 0.25259,0.10104 0.17681,0.10104 0.27785,0.0758 0.27785,0.20207 0,0.12629 0.22734,-0.0253 -0.0758,0.32837 -0.30311,0.35362 -0.27784,0.35362 -0.45466,0.58096 -0.17681,0.22733 -0.22733,0.17681 -0.22733,0.27784 0,0.10104 0,0.15156 0,0.35363 0,0.20207 -0.0757,0.22733 0.10104,0.32836 0.17681,0.10104 0.27784,0.15156 0.37888,0.20208 0.10104,0.0505 0.10104,0.0253 0.20207,0.22732 0.10104,0.20208 0.17681,0.27785 0.17681,0.27785 l 0.0253,0.15155"
         id="path63-9" /><path
         style="fill:none;stroke:#000000;stroke-width:0.8;stroke-linecap:butt;stroke-linejoin:miter;stroke-dasharray:none;stroke-opacity:1"
         d="m 123.132,162.6084 c -0.13566,-1.94443 0,-14.96757 0,-14.96757 l -0.45219,-0.67829 v -0.58785 l -0.4522,-1.22092 10.8074,0.0904 -0.58785,0.90438 v 0.54263 l -0.27131,0.76873 0.45219,15.01279"
         id="path64" /><path
         style="fill:none;stroke:#000000;stroke-width:0.8;stroke-linecap:butt;stroke-linejoin:miter;stroke-dasharray:none;stroke-opacity:1"
         d="m 112.00806,164.64326 -0.0452,-14.60581 -0.31654,-0.40698 0.0452,-0.67828 -0.72351,-0.90439 11.16916,-2.84881"
         id="path65" /><path
         style="fill:none;stroke:#000000;stroke-width:0.8;stroke-linecap:butt;stroke-linejoin:miter;stroke-dasharray:none;stroke-opacity:1"
         d="m 117.79613,151.801 c 0,0 -3.84364,0.9496 -3.70798,5.96894 0.13566,5.01934 3.66276,3.88885 3.66276,3.88885 0,0 4.16017,-0.63307 3.93407,-5.33587 -0.22609,-4.7028 -3.88885,-4.52192 -3.88885,-4.52192 z"
         id="path75" /><path
         style="fill:none;stroke:#000000;stroke-width:0.8;stroke-linecap:butt;stroke-linejoin:miter;stroke-dasharray:none;stroke-opacity:1"
         d="m 117.57003,152.34363 0.18088,4.4767 1.76355,-0.31653"
         id="path76" /><path
         style="fill:none;stroke:#000000;stroke-width:0.8;stroke-linecap:butt;stroke-linejoin:miter;stroke-dasharray:none;stroke-opacity:1"
         d="m 136.2908,161.97533 c 0,0 2.66793,0.0452 2.5775,-3.70798 -0.0904,-3.7532 -2.03487,-5.29065 -2.03487,-5.29065 0,0 -2.30618,-2.03487 -3.48188,1.26614 -1.1757,3.301 0.85916,5.8785 0.85916,5.8785 0,0 1.22092,1.85399 2.08009,1.85399 z"
         id="path77" /><path
         style="fill:none;stroke:#000000;stroke-width:0.8;stroke-linecap:butt;stroke-linejoin:miter;stroke-dasharray:none;stroke-opacity:1"
         d="m 135.83857,152.93148 -0.0904,4.29583 2.17052,0.49741"
         id="path78" /><path
         style="fill:none;stroke:#000000;stroke-width:0.8;stroke-linecap:butt;stroke-linejoin:miter;stroke-dasharray:none;stroke-opacity:1"
         d="m 111.01324,148.00258 -1.98964,-4.83846 12.97792,-3.39144 12.11875,0.27132 9.26995,3.5271 -2.93925,4.43148 0.58785,0.54263 -0.63307,0.90439 -0.40697,15.14844"
         id="path79" /><path
         style="fill:none;stroke:#000000;stroke-width:0.8;stroke-linecap:butt;stroke-linejoin:miter;stroke-dasharray:none;stroke-opacity:1"
         d="m 133.03501,145.24421 7.91337,3.301"
         id="path80" /><path
         style="fill:none;stroke:#000000;stroke-width:0.8;stroke-linecap:butt;stroke-linejoin:miter;stroke-dasharray:none;stroke-opacity:1"
         d="m 122.36327,145.10855 -0.0452,-3.07491 -0.27131,-2.17052"
         id="path81" /><path
         style="fill:none;stroke:#000000;stroke-width:0.8;stroke-linecap:butt;stroke-linejoin:miter;stroke-dasharray:none;stroke-opacity:1"
         d="m 132.89935,145.19899 0.0452,-3.02969 1.1757,-2.03487"
         id="path82" /><path
         style="fill:none;stroke:#000000;stroke-width:0.8;stroke-linecap:butt;stroke-linejoin:miter;stroke-dasharray:none;stroke-opacity:1"
         d="m 109.88276,142.89281 c 0.0452,-2.12531 0.13566,-4.43149 0.13566,-4.43149 l 12.02832,-3.39144 11.48569,0.36175 8.81775,3.48188 0.13566,4.11495"
         id="path83" /><path
         style="fill:none;stroke:#000000;stroke-width:0.8;stroke-linecap:butt;stroke-linejoin:miter;stroke-dasharray:none;stroke-opacity:1"
         d="m 122.13718,139.68224 -0.0904,-4.56714"
         id="path84" /><path
         style="fill:none;stroke:#000000;stroke-width:0.8;stroke-linecap:butt;stroke-linejoin:miter;stroke-dasharray:none;stroke-opacity:1"
         d="m 133.98462,139.95356 -0.2261,-4.34105"
         id="path85" /><path
         style="fill:none;stroke:#000000;stroke-width:0.8;stroke-linecap:butt;stroke-linejoin:miter;stroke-dasharray:none;stroke-opacity:1"
         d="m 113.40986,142.03364 -0.0452,-12.97792 -0.99482,-0.90438 0.90438,-0.36176 -0.0904,-2.39662 -1.31136,-1.62789 4.02451,-4.65758 0.22609,-2.26097 6.96377,-2.44184 5.83328,0.2261 5.74285,2.93925 0.13565,2.12531 4.47671,4.29582 -1.31136,1.58268 -0.0904,2.17052 1.08526,0.49741 -1.08526,1.22092 0.0452,11.84744"
         id="path86" /><path
         style="fill:none;stroke:#000000;stroke-width:0.8;stroke-linecap:butt;stroke-linejoin:miter;stroke-dasharray:none;stroke-opacity:1"
         d="m 123.26766,114.4499 -0.0452,2.53228 -0.49742,3.70798 0.67829,1.85399 -0.13565,17.09287"
         id="path87" /><path
         style="fill:none;stroke:#000000;stroke-width:0.8;stroke-linecap:butt;stroke-linejoin:miter;stroke-dasharray:none;stroke-opacity:1"
         d="m 131.54278,139.95356 c -0.2261,-1.35658 -0.58785,-17.18332 -0.58785,-17.18332 l 0.58785,-1.8992 -2.39662,-6.19504"
         id="path88" /><path
         style="fill:none;stroke:#000000;stroke-width:0.8;stroke-linecap:butt;stroke-linejoin:miter;stroke-dasharray:none;stroke-opacity:1"
         d="m 112.0985,123.76507 10.49087,-3.16535 8.86297,0.27132 7.68727,3.12012"
         id="path89" /><path
         style="fill:none;stroke:#000000;stroke-width:0.8;stroke-linecap:butt;stroke-linejoin:miter;stroke-dasharray:none;stroke-opacity:1"
         d="m 121.1207,139.88989 -0.28778,-10.45576 -4.92412,1.31096 c 0,0 0,10.39182 0.0959,10.5517 0,0 -0.41568,-9.75232 2.49403,-10.0401 2.90971,-0.28777 2.62197,8.6332 2.62197,8.6332 z"
         id="path90" /><path
         style="fill:none;stroke:#000000;stroke-width:0.8;stroke-linecap:butt;stroke-linejoin:miter;stroke-dasharray:none;stroke-opacity:1"
         d="m 132.53568,139.98582 -0.22382,-10.55169 3.70908,1.53479 -0.032,9.75232 c 0,0 0.15987,-8.12161 -1.98244,-9.33665 -2.14232,-1.21504 -1.47085,8.60123 -1.47085,8.60123 z"
         id="path91" /><path
         style="fill:none;stroke:#000000;stroke-width:0.8;stroke-linecap:butt;stroke-linejoin:miter;stroke-dasharray:none;stroke-opacity:1"
         d="m 116.12302,116.89174 c 0,0 -3.09752,-0.20348 -3.02969,-2.93925 0.0678,-2.73576 1.08526,-3.54971 1.08526,-3.54971 0,0 2.64532,-0.81394 2.73576,-2.17052 0.0904,-1.35658 0.0904,-1.51485 0.0904,-1.51485 0,0 2.30618,-1.1757 2.21574,-4.90628 -0.0904,-3.730592 -1.58267,-5.607189 -1.58267,-5.607189 l 1.71833,-0.972214 -0.20348,-9.631699 -1.44702,-1.944428 2.55489,-4.25061 c 0,0 -1.6279,-0.52002 -1.58268,-3.414051 0.0452,-2.894031 1.69573,-4.069734 1.69573,-4.069734 0,0 2.1253,-1.560063 2.8262,-5.222822 0.70089,-3.662759 0.63307,-3.685368 0.63307,-3.685368 0,0 0.0452,-1.1757 -1.58268,-2.170523 -1.62789,-0.994825 2.1027,-4.273219 2.1027,-4.273219 l 0.33914,-16.414585 0.65568,16.369365 c 0,0 1.92182,2.645326 2.21574,3.504491 0.29393,0.859166 -0.15826,1.22092 -0.9496,1.424408 -0.79134,0.203486 -0.85916,2.3514 -0.0904,4.521923 0.76873,2.170525 1.31136,5.177604 4.02452,6.262867 2.71315,1.08526 -0.74612,6.692447 -0.74612,6.692447 l 2.80359,4.521923 -1.33397,2.170525 v 9.450821 l 1.62789,0.949606 c 0,0 -2.23835,8.636876 0.65568,10.626516 l 0.11305,1.69573 c 0,0 0.90439,1.80877 3.25579,2.3514 2.3514,0.54263 0.13566,6.64723 0.13566,6.64723 0,0 -0.65568,1.1757 -2.19314,0.97221"
         id="path92" /><path
         style="fill:none;stroke:#000000;stroke-width:0.8;stroke-linecap:butt;stroke-linejoin:miter;stroke-dasharray:none;stroke-opacity:1"
         d="m 123.22244,114.49512 c 0,0 -2.87143,-3.21056 -0.83656,-6.91854 2.03487,-3.70798 0.99482,-13.882307 0.99482,-13.882307"
         id="path93" /><path
         style="fill:none;stroke:#000000;stroke-width:0.8;stroke-linecap:butt;stroke-linejoin:miter;stroke-dasharray:none;stroke-opacity:1"
         d="m 129.14616,114.56295 c 0,0 2.89403,-2.10269 0.63307,-7.16725 -2.26097,-5.06455 -1.67311,-13.52055 -1.67311,-13.52055"
         id="path94" /><path
         style="fill:none;stroke:#000000;stroke-width:0.8;stroke-linecap:butt;stroke-linejoin:miter;stroke-dasharray:none;stroke-opacity:1"
         d="m 119.33358,95.231727 c 1.06265,-0.293926 4.02452,-1.492237 4.02452,-1.492237 l 4.74802,0.226097 3.14273,1.107871"
         id="path95" /><path
         style="fill:none;stroke:#000000;stroke-width:0.8;stroke-linecap:butt;stroke-linejoin:miter;stroke-dasharray:none;stroke-opacity:1"
         d="m 123.65202,93.671661 c 0,0 0.15827,-10.106501 0.11305,-10.196938 -0.0452,-0.09044 -0.7009,-2.260962 -0.7009,-2.260962 l 0.99482,-3.979294 c 0,0 -0.92699,-0.248706 -0.11305,-7.054202 0.81395,-6.805496 0.76873,-7.438564 0.76873,-7.438564 l 1.83138,7.03159 c 0,0 1.31136,3.594931 0.27132,7.529005"
         id="path96" /><path
         style="fill:none;stroke:#000000;stroke-width:0.8;stroke-linecap:butt;stroke-linejoin:miter;stroke-dasharray:none;stroke-opacity:1"
         d="m 126.77215,77.166638 1.13048,4.318437 -0.72351,2.667936 v 9.654308"
         id="path97" /><path
         style="fill:none;stroke:#000000;stroke-width:0.8;stroke-linecap:butt;stroke-linejoin:miter;stroke-dasharray:none;stroke-opacity:1"
         d="m 97.537906,230.07551 -9.722135,-6.51157 32.512639,2.30618 0.27131,7.68727"
         id="path98" /><path
         style="fill:none;stroke:#000000;stroke-width:0.8;stroke-linecap:butt;stroke-linejoin:miter;stroke-dasharray:none;stroke-opacity:1"
         d="m 120.50928,230.88946 -17.00243,-0.49742"
         id="path99" /><path
         style="fill:none;stroke:#000000;stroke-width:0.8;stroke-linecap:butt;stroke-linejoin:miter;stroke-dasharray:none;stroke-opacity:1"
         d="m 84.333889,227.0006 v -3.21057 h -0.587852 l 0.09044,-0.31653 3.61754,-0.0904 -0.04522,0.63307 -1.447017,-0.0904 0.226097,4.20539"
         id="path100" /><path
         style="fill:none;stroke:#000000;stroke-width:0.8;stroke-linecap:butt;stroke-linejoin:miter;stroke-dasharray:none;stroke-opacity:1"
         d="m 67.150577,222.65955 0.09044,-6.69245 -1.175699,-0.99482 1.356576,-0.0904 v -2.30618 l -1.220919,-1.35658 1.582674,-0.0904 0.633068,-9.94823 -0.904385,-1.62789 h 0.904385 l 0.09044,-2.30618 c 0,0 -2.713156,-1.67311 -2.532279,-1.67311 0.180877,0 2.98447,-0.18088 2.98447,-0.18088 l 0.135658,-6.73767 -1.08526,-1.1757 1.13048,-0.27131 -0.994823,-1.53746 2.215742,-1.22092 c 0,0 -1.356577,-1.31136 0.452192,-3.25578 l 1.401795,-12.11884 1.356577,11.87005 c 0,0 1.333968,0.74612 1.175701,2.64533"
         id="path101" /><path
         style="fill:none;stroke:#000000;stroke-width:0.8;stroke-linecap:butt;stroke-linejoin:miter;stroke-dasharray:none;stroke-opacity:1"
         d="m 68.266269,185.80576 4.092779,-0.31975 2.813786,-2.27021 2.84576,1.31096 3.014289,-1.84102 2.48706,0.72351 2.487057,-2.08009 3.074908,1.26614 3.527102,-2.21574 2.034865,0.9496 2.667937,-1.8992 2.984468,0.81394 3.34623,-1.76355 2.30618,0.67829"
         id="path102" /><path
         style="fill:none;stroke:#000000;stroke-width:0.8;stroke-linecap:butt;stroke-linejoin:miter;stroke-dasharray:none;stroke-opacity:1"
         d="m 74.430873,192.09134 -0.226094,-4.06973 2.984468,-0.40697 -0.09044,4.20539 z"
         id="path103" /><path
         style="fill:none;stroke:#000000;stroke-width:0.8;stroke-linecap:butt;stroke-linejoin:miter;stroke-dasharray:none;stroke-opacity:1"
         d="m 85.238274,190.68955 0.04522,-4.43149 2.894034,-0.58785 -0.09044,4.65758 z"
         id="path104" /><path
         style="fill:none;stroke:#000000;stroke-width:0.8;stroke-linecap:butt;stroke-linejoin:miter;stroke-dasharray:none;stroke-opacity:1"
         d="m 96.226549,188.926 0.09044,-4.56715 3.165348,-0.49741 0.135657,4.43149 z"
         id="path105" /><path
         style="fill:none;stroke:#000000;stroke-width:0.8;stroke-linecap:butt;stroke-linejoin:miter;stroke-dasharray:none;stroke-opacity:1"
         d="m 102.96422,188.51903 0.0452,-3.88886 c 0,0 0,-1.67311 0.7235,-1.22092 0.72351,0.45219 0.49741,4.9289 0.49741,4.9289 z"
         id="path106" /><path
         style="fill:none;stroke:#000000;stroke-width:0.8;stroke-linecap:butt;stroke-linejoin:miter;stroke-dasharray:none;stroke-opacity:1"
         d="m 69.004565,195.34713 35.768425,-4.97412"
         id="path107" /><path
         style="fill:none;stroke:#000000;stroke-width:0.8;stroke-linecap:butt;stroke-linejoin:miter;stroke-dasharray:none;stroke-opacity:1"
         d="M 68.642811,197.11068 104.45645,192.0009"
         id="path108" /><path
         style="fill:none;stroke:#000000;stroke-width:0.8;stroke-linecap:butt;stroke-linejoin:miter;stroke-dasharray:none;stroke-opacity:1"
         d="m 73.571708,208.68681 0.226097,-8.27512 3.029688,-0.2261 v 8.36556 z"
         id="path109" /><path
         style="fill:none;stroke:#000000;stroke-width:0.8;stroke-linecap:butt;stroke-linejoin:miter;stroke-dasharray:none;stroke-opacity:1"
         d="m 84.333889,207.55632 0.452191,-8.59165 3.301005,-0.27132 -0.04522,8.72732 z"
         id="path110" /><path
         style="fill:none;stroke:#000000;stroke-width:0.8;stroke-linecap:butt;stroke-linejoin:miter;stroke-dasharray:none;stroke-opacity:1"
         d="m 95.955232,206.65194 0.180878,-8.72731 3.391445,-0.27132 0.04522,8.72732 z"
         id="path111" /><path
         style="fill:none;stroke:#000000;stroke-width:0.8;stroke-linecap:butt;stroke-linejoin:miter;stroke-dasharray:none;stroke-opacity:1"
         d="m 99.07536,216.91671 c -0.859165,0 -3.572319,0.0904 -3.572319,0.0904 l 0.09044,6.96376"
         id="path112" /><path
         style="fill:none;stroke:#000000;stroke-width:0.8;stroke-linecap:butt;stroke-linejoin:miter;stroke-dasharray:none;stroke-opacity:1"
         d="m 88.132305,223.38306 c 0,0 -0.09044,-5.38109 -0.09044,-5.92372 l -3.888854,0.13566 0.09044,5.60718 z"
         id="path113" /><path
         style="fill:none;stroke:#000000;stroke-width:0.8;stroke-linecap:butt;stroke-linejoin:miter;stroke-dasharray:none;stroke-opacity:1"
         d="m 72.966568,222.48089 0.06395,-3.9329 3.261434,-0.15988 -0.03197,4.18871"
         id="path114" /><path
         style="fill:none;stroke:#000000;stroke-width:0.8;stroke-linecap:butt;stroke-linejoin:miter;stroke-dasharray:none;stroke-opacity:1"
         d="m 67.882571,211.09785 34.980469,-3.26143"
         id="path115" /><path
         style="fill:none;stroke:#000000;stroke-width:0.8;stroke-linecap:butt;stroke-linejoin:miter;stroke-dasharray:none;stroke-opacity:1"
         d="m 16.658888,255.76669 c 0,0 14.100901,-2.62194 23.117805,-0.51159"
         id="path116" /><path
         style="fill:none;stroke:#000000;stroke-width:0.8;stroke-linecap:butt;stroke-linejoin:miter;stroke-dasharray:none;stroke-opacity:1"
         d="m 172.0246,161.56883 c 0,0 0.19188,-3.03761 0.15988,-3.38933 -0.032,-0.35172 -0.57555,-0.47962 -0.57555,-0.47962 0,0 2.11034,-8.40938 2.11034,-11.09527 l 2.07837,10.83947 c 0,0 -0.8953,-0.064 -0.60753,3.64513 0,0 3.38934,3.13354 0.95925,4.73228 l 4.22068,3.6771 3.83698,-1.18306 3.00563,2.58996 5.3398,2.01441 2.90971,-0.70345 2.20626,2.43009 5.37177,2.17429 2.07837,-1.15109 1.88651,2.36613 3.13354,-0.31974 3.5492,2.39811 2.43009,-0.31975"
         id="path117" /><path
         style="fill:none;stroke:#000000;stroke-width:0.8;stroke-linecap:butt;stroke-linejoin:miter;stroke-dasharray:none;stroke-opacity:1"
         d="m 176.67158,179.42996 39.25031,11.25959"
         id="path118" /><path
         style="fill:none;stroke:#000000;stroke-width:0.8;stroke-linecap:butt;stroke-linejoin:miter;stroke-dasharray:none;stroke-opacity:1"
         d="m 175.67676,181.51004 40.38078,11.48569"
         id="path119" /><path
         style="fill:none;stroke:#000000;stroke-width:0.8;stroke-linecap:butt;stroke-linejoin:miter;stroke-dasharray:none;stroke-opacity:1"
         d="m 182.36921,173.32536 v 5.47153 l 2.57749,0.72351 0.0452,-5.3811 z"
         id="path120" /><path
         style="fill:none;stroke:#000000;stroke-width:0.8;stroke-linecap:butt;stroke-linejoin:miter;stroke-dasharray:none;stroke-opacity:1"
         d="m 193.4027,177.12378 v 5.06455 l 2.39662,0.81395 -0.0904,-5.29066 z"
         id="path121" /><path
         style="fill:none;stroke:#000000;stroke-width:0.8;stroke-linecap:butt;stroke-linejoin:miter;stroke-dasharray:none;stroke-opacity:1"
         d="m 198.96467,185.08236 v -7.14464 l 2.1253,0.63307 v 7.09942 z"
         id="path122" /><path
         style="fill:none;stroke:#000000;stroke-width:0.8;stroke-linecap:butt;stroke-linejoin:miter;stroke-dasharray:none;stroke-opacity:1"
         d="m 203.48659,180.51522 0.0452,5.10977 2.17053,0.40698 -0.0452,-4.88368 z"
         id="path123" /><path
         style="fill:none;stroke:#000000;stroke-width:0.8;stroke-linecap:butt;stroke-linejoin:miter;stroke-dasharray:none;stroke-opacity:1"
         d="m 208.41549,187.43376 0.0452,-6.01416 2.30618,0.58785 -0.27131,5.78807 z"
         id="path124" /><path
         style="fill:none;stroke:#000000;stroke-width:0.8;stroke-linecap:butt;stroke-linejoin:miter;stroke-dasharray:none;stroke-opacity:1"
         d="m 193.90011,192.54354 0.0904,9.72213 2.62272,0.40698 -0.0904,-9.49604 z"
         id="path125" /><path
         style="fill:none;stroke:#000000;stroke-width:0.8;stroke-linecap:butt;stroke-linejoin:miter;stroke-dasharray:none;stroke-opacity:1"
         d="m 204.11966,195.25669 0.0452,9.13429 2.21575,0.54263 -0.13566,-9.36038 -1.94443,-0.31654 z"
         id="path126" /><path
         style="fill:none;stroke:#000000;stroke-width:0.8;stroke-linecap:butt;stroke-linejoin:miter;stroke-dasharray:none;stroke-opacity:1"
         d="m 182.91184,189.46863 -0.31654,10.26477 3.12013,0.54263 v -9.99346 z"
         id="path127" /><path
         style="fill:none;stroke:#000000;stroke-width:0.8;stroke-linecap:butt;stroke-linejoin:miter;stroke-dasharray:none;stroke-opacity:1"
         d="m 189.10687,175.5411 c 0,0 -0.40697,-0.72351 -0.58784,2.98447 -0.18088,3.70798 0.99482,3.16535 0.99482,3.16535 0,0 0.58785,0.63307 0.58785,-2.17052 0,-2.8036 0.0904,-4.25062 -0.99483,-3.9793 z"
         id="path128" /><path
         style="fill:none;stroke:#000000;stroke-width:0.8;stroke-linecap:butt;stroke-linejoin:miter;stroke-dasharray:none;stroke-opacity:1"
         d="m 189.64934,192.27963 c 0,0 -0.39866,-0.93381 -0.57585,3.85194 -0.17719,4.78575 0.97453,4.0854 0.97453,4.0854 0,0 0.57586,0.81708 0.57586,-2.80141 0,-3.6185 0.0886,-5.48611 -0.97454,-5.13593 z"
         id="path128-4" /><path
         style="fill:none;stroke:#000000;stroke-width:0.8;stroke-linecap:butt;stroke-linejoin:miter;stroke-dasharray:none;stroke-opacity:1"
         d="m 200.14247,194.8196 c 0,0 -0.39866,-0.93381 -0.57585,3.85194 -0.17719,4.78575 0.97453,4.0854 0.97453,4.0854 0,0 0.57586,0.81708 0.57586,-2.80141 0,-3.6185 0.0886,-5.48611 -0.97454,-5.13593 z"
         id="path128-4-6" /><path
         style="fill:none;stroke:#000000;stroke-width:0.8;stroke-linecap:butt;stroke-linejoin:miter;stroke-dasharray:none;stroke-opacity:1"
         d="m 200.67163,213.99852 c 0,0 -0.39866,-0.93381 -0.57585,3.85194 -0.17719,4.78575 0.97453,4.0854 0.97453,4.0854 0,0 0.57586,0.81708 0.57586,-2.80141 0,-3.6185 0.0886,-5.48611 -0.97454,-5.13593 z"
         id="path128-4-5" /><path
         style="fill:none;stroke:#000000;stroke-width:0.8;stroke-linecap:butt;stroke-linejoin:miter;stroke-dasharray:none;stroke-opacity:1"
         d="m 190.16527,212.58518 c 0,0 -0.39866,-0.93381 -0.57585,3.85194 -0.17719,4.78575 0.97453,4.0854 0.97453,4.0854 0,0 0.57586,0.81708 0.57586,-2.80141 0,-3.6185 0.0886,-5.48611 -0.97454,-5.13593 z"
         id="path128-4-0" /><path
         style="fill:none;stroke:#000000;stroke-width:0.8;stroke-linecap:butt;stroke-linejoin:miter;stroke-dasharray:none;stroke-opacity:1"
         d="m 183.31881,223.60916 -0.13566,-12.93271 3.88886,0.36176 -0.0452,13.02314 z"
         id="path129" /><path
         style="fill:none;stroke:#000000;stroke-width:0.8;stroke-linecap:butt;stroke-linejoin:miter;stroke-dasharray:none;stroke-opacity:1"
         d="m 194.26187,224.83008 -0.27132,-13.1588 3.88886,1.04004 0.31653,12.48051 z"
         id="path130" /><path
         style="fill:none;stroke:#000000;stroke-width:0.8;stroke-linecap:butt;stroke-linejoin:miter;stroke-dasharray:none;stroke-opacity:1"
         d="m 204.2101,225.77968 c 0.2261,-1.13048 -0.27131,-11.84744 -0.27131,-11.84744 l 4.11495,0.58785 -0.0904,11.66656 z"
         id="path131" /><path
         style="fill:none;stroke:#000000;stroke-width:0.8;stroke-linecap:butt;stroke-linejoin:miter;stroke-dasharray:none;stroke-opacity:1"
         d="m 181.23873,256.52877 0.18087,-19.94169 c 0,0 0.72351,-4.06973 3.93408,-3.48188 3.21056,0.58785 3.39144,4.65758 3.39144,4.65758 l -0.18088,17.63551"
         id="path132" /><path
         style="fill:none;stroke:#000000;stroke-width:0.8;stroke-linecap:butt;stroke-linejoin:miter;stroke-dasharray:none;stroke-opacity:1"
         d="m 192.54354,254.67478 -0.13566,-17.36419 c 0,0 0.9496,-3.9793 3.43666,-3.57232 2.48706,0.40697 3.39144,4.61236 3.39144,4.61236 l 0.49742,15.01279"
         id="path133" /><path
         style="fill:none;stroke:#000000;stroke-width:0.8;stroke-linecap:butt;stroke-linejoin:miter;stroke-dasharray:none;stroke-opacity:1"
         d="m 203.66747,251.41899 0.0904,-13.61099 c 0,0 0.31653,-3.16535 2.89403,-3.07491 2.5775,0.0904 2.98447,4.9289 2.98447,4.9289 l 0.0904,9.45082"
         id="path134" /></g></g></svg>
